<svg width="234" height="228" viewBox="0 0 234 228" fill="none" xmlns="http://www.w3.org/2000/svg">
<g filter="url(#filter0_d_2681_41)">
<path d="M60.0382 178.425L67.8584 216L108.524 207.015H135.503H168.348L209.013 198.029L227 170.257L219.962 92.2484V50.5895L209.013 26.0842L200.411 22L179.297 26.0842L152.708 39.1537L67.8584 66.9263L60.0382 76.7284L53 109.402L60.0382 138.808V178.425Z" fill="#2D2D2D"/>
<path d="M60.0382 178.425L67.8584 216L108.524 207.015H135.503H168.348L209.013 198.029L227 170.257L219.962 92.2484V50.5895L209.013 26.0842L200.411 22L179.297 26.0842L152.708 39.1537L67.8584 66.9263L60.0382 76.7284L53 109.402L60.0382 138.808V178.425Z" stroke="#1C1B15" stroke-width="5"/>
</g>
<mask id="path-2-outside-1_2681_41" maskUnits="userSpaceOnUse" x="58" y="86" width="125" height="45" fill="black">
<rect fill="white" x="58" y="86" width="125" height="45"/>
<path d="M73 126V121H68V116H63V101H68V96H73V91H98V96H78V101H73V116H78V121H88V111H83V106H98V126H73ZM103 126V91H138V96H113V106H133V111H113V121H138V126H103Z"/>
<path d="M153 126V121H148V116H143V101H148V96H153V91H168V96H173V101H178V116H173V121H168V126H153ZM158 121H168V101H163V96H153V116H158V121Z"/>
</mask>
<path d="M73 126V121H68V116H63V101H68V96H73V91H98V96H78V101H73V116H78V121H88V111H83V106H98V126H73ZM103 126V91H138V96H113V106H133V111H113V121H138V126H103Z" fill="#E5E7EB"/>
<path d="M153 126V121H148V116H143V101H148V96H153V91H168V96H173V101H178V116H173V121H168V126H153ZM158 121H168V101H163V96H153V116H158V121Z" fill="#ECD06F"/>
<path d="M73 126H68V131H73V126ZM73 121H78V116H73V121ZM68 121H63V126H68V121ZM68 116H73V111H68V116ZM63 116H58V121H63V116ZM63 101V96H58V101H63ZM68 101V106H73V101H68ZM68 96V91H63V96H68ZM73 96V101H78V96H73ZM73 91V86H68V91H73ZM98 91H103V86H98V91ZM98 96V101H103V96H98ZM78 96V91H73V96H78ZM78 101V106H83V101H78ZM73 101V96H68V101H73ZM73 116H68V121H73V116ZM78 116H83V111H78V116ZM78 121H73V126H78V121ZM88 121V126H93V121H88ZM88 111H93V106H88V111ZM83 111H78V116H83V111ZM83 106V101H78V106H83ZM98 106H103V101H98V106ZM98 126V131H103V126H98ZM78 126V121H68V126H78ZM73 116H68V126H73V116ZM73 121V116H63V121H73ZM68 111H63V121H68V111ZM68 116V101H58V116H68ZM63 106H68V96H63V106ZM73 101V96H63V101H73ZM68 101H73V91H68V101ZM78 96V91H68V96H78ZM73 96H98V86H73V96ZM93 91V96H103V91H93ZM98 91H78V101H98V91ZM73 96V101H83V96H73ZM78 96H73V106H78V96ZM68 101V116H78V101H68ZM73 121H78V111H73V121ZM73 116V121H83V116H73ZM78 126H88V116H78V126ZM93 121V111H83V121H93ZM88 106H83V116H88V106ZM88 111V106H78V111H88ZM83 111H98V101H83V111ZM93 106V126H103V106H93ZM98 121H73V131H98V121ZM103 126H98V131H103V126ZM103 91V86H98V91H103ZM138 91H143V86H138V91ZM138 96V101H143V96H138ZM113 96V91H108V96H113ZM113 106H108V111H113V106ZM133 106H138V101H133V106ZM133 111V116H138V111H133ZM113 111V106H108V111H113ZM113 121H108V126H113V121ZM138 121H143V116H138V121ZM138 126V131H143V126H138ZM108 126V91H98V126H108ZM103 96H138V86H103V96ZM133 91V96H143V91H133ZM138 91H113V101H138V91ZM108 96V106H118V96H108ZM113 111H133V101H113V111ZM128 106V111H138V106H128ZM133 106H113V116H133V106ZM108 111V121H118V111H108ZM113 126H138V116H113V126ZM133 121V126H143V121H133ZM138 121H103V131H138V121ZM153 126H148V131H153V126ZM153 121H158V116H153V121ZM148 121H143V126H148V121ZM148 116H153V111H148V116ZM143 116H138V121H143V116ZM143 101V96H138V101H143ZM148 101V106H153V101H148ZM148 96V91H143V96H148ZM153 96V101H158V96H153ZM153 91V86H148V91H153ZM168 91H173V86H168V91ZM168 96H163V101H168V96ZM173 96H178V91H173V96ZM173 101H168V106H173V101ZM178 101H183V96H178V101ZM178 116V121H183V116H178ZM173 116V111H168V116H173ZM173 121V126H178V121H173ZM168 121V116H163V121H168ZM168 126V131H173V126H168ZM158 121H153V126H158V121ZM168 121V126H173V121H168ZM168 101H173V96H168V101ZM163 101H158V106H163V101ZM163 96H168V91H163V96ZM153 96V91H148V96H153ZM153 116H148V121H153V116ZM158 116H163V111H158V116ZM158 126V121H148V126H158ZM153 116H148V126H153V116ZM153 121V116H143V121H153ZM148 111H143V121H148V111ZM148 116V101H138V116H148ZM143 106H148V96H143V106ZM153 101V96H143V101H153ZM148 101H153V91H148V101ZM158 96V91H148V96H158ZM153 96H168V86H153V96ZM163 91V96H173V91H163ZM168 101H173V91H168V101ZM168 96V101H178V96H168ZM173 106H178V96H173V106ZM173 101V116H183V101H173ZM178 111H173V121H178V111ZM168 116V121H178V116H168ZM173 116H168V126H173V116ZM163 121V126H173V121H163ZM168 121H153V131H168V121ZM158 126H168V116H158V126ZM173 121V101H163V121H173ZM168 96H163V106H168V96ZM168 101V96H158V101H168ZM163 91H153V101H163V91ZM148 96V116H158V96H148ZM153 121H158V111H153V121ZM153 116V121H163V116H153Z" fill="#1C1B15" mask="url(#path-2-outside-1_2681_41)"/>
<mask id="path-4-outside-2_2681_41" maskUnits="userSpaceOnUse" x="96" y="130" width="125" height="45" fill="black">
<rect fill="white" x="96" y="130" width="125" height="45"/>
<path d="M101 170V135H131V140H136V150H131V155H136V165H131V170H101ZM111 150H126V140H111V150ZM111 165H126V155H111V165ZM196 170V140H186V135H216V140H206V170H196Z"/>
<path d="M146 170V165H156V145H151V140H156V135H166V165H176V170H146Z"/>
</mask>
<path d="M101 170V135H131V140H136V150H131V155H136V165H131V170H101ZM111 150H126V140H111V150ZM111 165H126V155H111V165ZM196 170V140H186V135H216V140H206V170H196Z" fill="#E5E7EB"/>
<path d="M146 170V165H156V145H151V140H156V135H166V165H176V170H146Z" fill="#ECD06F"/>
<path d="M101 170H96V175H101V170ZM101 135V130H96V135H101ZM131 135H136V130H131V135ZM131 140H126V145H131V140ZM136 140H141V135H136V140ZM136 150V155H141V150H136ZM131 150V145H126V150H131ZM131 155H126V160H131V155ZM136 155H141V150H136V155ZM136 165V170H141V165H136ZM131 165V160H126V165H131ZM131 170V175H136V170H131ZM111 150H106V155H111V150ZM126 150V155H131V150H126ZM126 140H131V135H126V140ZM111 140V135H106V140H111ZM111 165H106V170H111V165ZM126 165V170H131V165H126ZM126 155H131V150H126V155ZM111 155V150H106V155H111ZM106 170V135H96V170H106ZM101 140H131V130H101V140ZM126 135V140H136V135H126ZM131 145H136V135H131V145ZM131 140V150H141V140H131ZM136 145H131V155H136V145ZM126 150V155H136V150H126ZM131 160H136V150H131V160ZM131 155V165H141V155H131ZM136 160H131V170H136V160ZM126 165V170H136V165H126ZM131 165H101V175H131V165ZM111 155H126V145H111V155ZM131 150V140H121V150H131ZM126 135H111V145H126V135ZM106 140V150H116V140H106ZM111 170H126V160H111V170ZM131 165V155H121V165H131ZM126 150H111V160H126V150ZM106 155V165H116V155H106ZM146 170H141V175H146V170ZM146 165V160H141V165H146ZM156 165V170H161V165H156ZM156 145H161V140H156V145ZM151 145H146V150H151V145ZM151 140V135H146V140H151ZM156 140V145H161V140H156ZM156 135V130H151V135H156ZM166 135H171V130H166V135ZM166 165H161V170H166V165ZM176 165H181V160H176V165ZM176 170V175H181V170H176ZM151 170V165H141V170H151ZM146 170H156V160H146V170ZM161 165V145H151V165H161ZM156 140H151V150H156V140ZM156 145V140H146V145H156ZM151 145H156V135H151V145ZM161 140V135H151V140H161ZM156 140H166V130H156V140ZM161 135V165H171V135H161ZM166 170H176V160H166V170ZM171 165V170H181V165H171ZM176 165H146V175H176V165ZM196 170H191V175H196V170ZM196 140H201V135H196V140ZM186 140H181V145H186V140ZM186 135V130H181V135H186ZM216 135H221V130H216V135ZM216 140V145H221V140H216ZM206 140V135H201V140H206ZM206 170V175H211V170H206ZM201 170V140H191V170H201ZM196 135H186V145H196V135ZM191 140V135H181V140H191ZM186 140H216V130H186V140ZM211 135V140H221V135H211ZM216 135H206V145H216V135ZM201 140V170H211V140H201ZM206 165H196V175H206V165Z" fill="#1C1B15" mask="url(#path-4-outside-2_2681_41)"/>
<g filter="url(#filter1_d_2681_41)">
<path d="M66 215L22.1382 191.809L12.0461 140.137V111.25L7 56.7304L12.0461 49L47.7566 66.902L59.7895 77.8873L52.8026 111.25L59.7895 140.137V180.01L66 215Z" fill="#CCCCCC"/>
<path d="M66 215L22.1382 191.809L12.0461 140.137V111.25L7 56.7304L12.0461 49L47.7566 66.902L59.7895 77.8873L52.8026 111.25L59.7895 140.137V180.01L66 215Z" stroke="#1C1B15" stroke-width="5"/>
</g>
<g filter="url(#filter2_d_2681_41)">
<path d="M19.4194 40.0169L12 48.1525L40.8967 61.5763L60.812 75L67.4504 65.2373L126.025 48.1525L159.998 35.5424L186.552 22.5254H201L151.017 3L19.4194 40.0169Z" fill="#E5E7EB"/>
<path d="M19.4194 40.0169L12 48.1525L40.8967 61.5763L60.812 75L67.4504 65.2373L126.025 48.1525L159.998 35.5424L186.552 22.5254H201L151.017 3L19.4194 40.0169Z" stroke="#1C1B15" stroke-width="5"/>
</g>
<defs>
<filter id="filter0_d_2681_41" x="46.4355" y="19.3906" width="187.133" height="207.596" filterUnits="userSpaceOnUse" color-interpolation-filters="sRGB">
<feFlood flood-opacity="0" result="BackgroundImageFix"/>
<feColorMatrix in="SourceAlpha" type="matrix" values="0 0 0 0 0 0 0 0 0 0 0 0 0 0 0 0 0 0 127 0" result="hardAlpha"/>
<feOffset dy="4"/>
<feGaussianBlur stdDeviation="2"/>
<feComposite in2="hardAlpha" operator="out"/>
<feColorMatrix type="matrix" values="0 0 0 0 0 0 0 0 0 0 0 0 0 0 0 0 0 0 0.25 0"/>
<feBlend mode="normal" in2="BackgroundImageFix" result="effect1_dropShadow_2681_41"/>
<feBlend mode="normal" in="SourceGraphic" in2="effect1_dropShadow_2681_41" result="shape"/>
</filter>
<filter id="filter1_d_2681_41" x="0.429688" y="45.7656" width="72.9258" height="181.836" filterUnits="userSpaceOnUse" color-interpolation-filters="sRGB">
<feFlood flood-opacity="0" result="BackgroundImageFix"/>
<feColorMatrix in="SourceAlpha" type="matrix" values="0 0 0 0 0 0 0 0 0 0 0 0 0 0 0 0 0 0 127 0" result="hardAlpha"/>
<feOffset dy="4"/>
<feGaussianBlur stdDeviation="2"/>
<feComposite in2="hardAlpha" operator="out"/>
<feColorMatrix type="matrix" values="0 0 0 0 0 0 0 0 0 0 0 0 0 0 0 0 0 0 0.25 0"/>
<feBlend mode="normal" in2="BackgroundImageFix" result="effect1_dropShadow_2681_41"/>
<feBlend mode="normal" in="SourceGraphic" in2="effect1_dropShadow_2681_41" result="shape"/>
</filter>
<filter id="filter2_d_2681_41" x="3.85742" y="0.367188" width="202.053" height="86.0977" filterUnits="userSpaceOnUse" color-interpolation-filters="sRGB">
<feFlood flood-opacity="0" result="BackgroundImageFix"/>
<feColorMatrix in="SourceAlpha" type="matrix" values="0 0 0 0 0 0 0 0 0 0 0 0 0 0 0 0 0 0 127 0" result="hardAlpha"/>
<feOffset dy="4"/>
<feGaussianBlur stdDeviation="2"/>
<feComposite in2="hardAlpha" operator="out"/>
<feColorMatrix type="matrix" values="0 0 0 0 0 0 0 0 0 0 0 0 0 0 0 0 0 0 0.25 0"/>
<feBlend mode="normal" in2="BackgroundImageFix" result="effect1_dropShadow_2681_41"/>
<feBlend mode="normal" in="SourceGraphic" in2="effect1_dropShadow_2681_41" result="shape"/>
</filter>
</defs>
</svg>
