<svg width="718" height="292" viewBox="0 0 718 292" fill="none" xmlns="http://www.w3.org/2000/svg">
<g filter="url(#filter0_d_2702_104)">
<path d="M157.562 64.2784L164.172 66.8066L152.698 76.995L141.701 88.9852L131.656 104.579L95.0488 90.5768L61.3308 85.778L102.967 53.1138L157.562 64.2784Z" fill="#E5E7EB" stroke="#1C1B15" stroke-width="5"/>
<path d="M126.1 143.485L130.936 106.462L110.598 98.6831L88.7355 90.3206L58.6928 89.627L60.0031 118.202L52.4367 137.984L39.646 171.423L33.4769 198.218L30.7708 231.196L41.5054 258.949L83.1898 271.387L116.291 277.612L114.05 251.173C113.875 239.948 113.64 216.895 114.098 214.479C114.556 212.062 118.791 187.48 120.852 175.49L126.1 143.485Z" fill="#ECCC58" stroke="#1C1B15" stroke-width="5"/>
<path d="M166.155 104.278L165.451 71.0751L154.041 78.0486L139.633 89.8139L131.113 105.991L124.496 155.29L113.875 199.817L113.035 224.871L113.687 252.115L119.585 273.267L132.744 255.625L149.686 228.092C149.433 223.676 149.869 212.073 153.641 200.991C158.357 187.138 156.367 175.579 156.792 171.422C157.216 167.265 159.454 149.225 159.01 145.816C158.654 143.088 163.625 116.988 166.155 104.278Z" fill="#E5E7EB" stroke="#1C1B15" stroke-width="5"/>
<mask id="path-4-outside-1_2702_104" maskUnits="userSpaceOnUse" x="356.734" y="168.567" width="265.466" height="86.5802" fill="black">
<rect fill="white" x="356.734" y="168.567" width="265.466" height="86.5802"/>
<path d="M359.752 251.88L360.188 173.131L427.686 172.728L427.624 183.978L438.874 183.911L438.749 206.41L427.5 206.477L427.437 217.727L438.687 217.66L438.563 240.16L427.313 240.227L427.251 251.477L359.752 251.88ZM382.5 206.746L416.25 206.545L416.374 184.045L382.625 184.246L382.5 206.746ZM382.314 240.496L416.063 240.294L416.187 217.794L382.438 217.996L382.314 240.496ZM573.498 250.604L573.871 183.105L551.372 183.239L551.434 171.989L618.933 171.587L618.871 182.836L596.371 182.971L595.998 250.47L573.498 250.604Z"/>
<path d="M461 251.275L461.062 240.026L483.562 239.891L483.811 194.892L472.561 194.959L472.623 183.709L483.873 183.642L483.935 172.392L506.435 172.258L506.061 239.757L528.561 239.623L528.499 250.873L461 251.275Z"/>
</mask>
<path d="M359.752 251.88L360.188 173.131L427.686 172.728L427.624 183.978L438.874 183.911L438.749 206.41L427.5 206.477L427.437 217.727L438.687 217.66L438.563 240.16L427.313 240.227L427.251 251.477L359.752 251.88ZM382.5 206.746L416.25 206.545L416.374 184.045L382.625 184.246L382.5 206.746ZM382.314 240.496L416.063 240.294L416.187 217.794L382.438 217.996L382.314 240.496ZM573.498 250.604L573.871 183.105L551.372 183.239L551.434 171.989L618.933 171.587L618.871 182.836L596.371 182.971L595.998 250.47L573.498 250.604Z" fill="#ECCC58"/>
<path d="M461 251.275L461.062 240.026L483.562 239.891L483.811 194.892L472.561 194.959L472.623 183.709L483.873 183.642L483.935 172.392L506.435 172.258L506.061 239.757L528.561 239.623L528.499 250.873L461 251.275Z" fill="#E5E7EB"/>
<path d="M359.752 251.88L356.752 251.898L356.735 254.898L359.735 254.88L359.752 251.88ZM360.188 173.131L360.204 170.131L357.204 170.149L357.188 173.149L360.188 173.131ZM427.686 172.728L430.686 172.71L430.703 169.71L427.703 169.728L427.686 172.728ZM427.624 183.978L424.624 183.996L424.608 186.996L427.607 186.978L427.624 183.978ZM438.874 183.911L441.874 183.893L441.89 180.893L438.89 180.911L438.874 183.911ZM438.749 206.41L438.733 209.41L441.733 209.392L441.749 206.392L438.749 206.41ZM427.5 206.477L427.516 203.478L424.516 203.495L424.5 206.495L427.5 206.477ZM427.437 217.727L424.437 217.745L424.421 220.745L427.421 220.727L427.437 217.727ZM438.687 217.66L441.687 217.642L441.704 214.642L438.704 214.66L438.687 217.66ZM438.563 240.16L438.546 243.16L441.546 243.142L441.563 240.142L438.563 240.16ZM427.313 240.227L427.329 237.227L424.329 237.245L424.313 240.245L427.313 240.227ZM427.251 251.477L427.234 254.477L430.234 254.459L430.251 251.459L427.251 251.477ZM382.5 206.746L379.5 206.764L379.484 209.764L382.484 209.746L382.5 206.746ZM416.25 206.545L416.233 209.545L419.233 209.527L419.25 206.527L416.25 206.545ZM416.374 184.045L419.374 184.027L419.391 181.027L416.391 181.045L416.374 184.045ZM382.625 184.246L382.641 181.246L379.642 181.264L379.625 184.264L382.625 184.246ZM382.314 240.496L379.314 240.513L379.297 243.513L382.297 243.495L382.314 240.496ZM416.063 240.294L416.046 243.294L419.046 243.276L419.063 240.276L416.063 240.294ZM416.187 217.794L419.187 217.777L419.204 214.777L416.204 214.795L416.187 217.794ZM382.438 217.996L382.455 214.996L379.455 215.014L379.438 218.014L382.438 217.996ZM362.752 251.862L363.187 173.113L357.188 173.149L356.752 251.898L362.752 251.862ZM360.171 176.131L427.67 175.728L427.703 169.728L360.204 170.131L360.171 176.131ZM424.686 172.746L424.624 183.996L430.624 183.96L430.686 172.71L424.686 172.746ZM427.607 186.978L438.857 186.911L438.89 180.911L427.641 180.978L427.607 186.978ZM435.874 183.929L435.749 206.428L441.749 206.392L441.874 183.893L435.874 183.929ZM438.766 203.41L427.516 203.478L427.483 209.477L438.733 209.41L438.766 203.41ZM424.5 206.495L424.437 217.745L430.437 217.709L430.499 206.46L424.5 206.495ZM427.421 220.727L438.67 220.66L438.704 214.66L427.454 214.727L427.421 220.727ZM435.687 217.678L435.563 240.178L441.563 240.142L441.687 217.642L435.687 217.678ZM438.579 237.16L427.329 237.227L427.296 243.227L438.546 243.16L438.579 237.16ZM424.313 240.245L424.251 251.495L430.251 251.459L430.313 240.209L424.313 240.245ZM427.267 248.477L359.768 248.88L359.735 254.88L427.234 254.477L427.267 248.477ZM382.484 209.746L416.233 209.545L416.266 203.545L382.517 203.746L382.484 209.746ZM419.25 206.527L419.374 184.027L413.374 184.063L413.25 206.563L419.25 206.527ZM416.391 181.045L382.641 181.246L382.608 187.246L416.358 187.045L416.391 181.045ZM379.625 184.264L379.5 206.764L385.5 206.728L385.625 184.228L379.625 184.264ZM382.297 243.495L416.046 243.294L416.08 237.294L382.33 237.496L382.297 243.495ZM419.063 240.276L419.187 217.777L413.188 217.812L413.063 240.312L419.063 240.276ZM416.204 214.795L382.455 214.996L382.422 220.996L416.171 220.794L416.204 214.795ZM379.438 218.014L379.314 240.513L385.314 240.478L385.438 217.978L379.438 218.014ZM461 251.275L458 251.293L457.983 254.293L460.983 254.275L461 251.275ZM461.062 240.026L461.079 237.026L458.079 237.044L458.062 240.043L461.062 240.026ZM483.562 239.891L483.545 242.891L486.545 242.873L486.562 239.873L483.562 239.891ZM483.811 194.892L486.811 194.874L486.827 191.874L483.827 191.892L483.811 194.892ZM472.561 194.959L469.561 194.977L469.544 197.977L472.544 197.959L472.561 194.959ZM472.623 183.709L472.64 180.709L469.64 180.727L469.623 183.727L472.623 183.709ZM483.873 183.642L483.856 186.642L486.856 186.624L486.873 183.624L483.873 183.642ZM483.935 172.392L483.952 169.392L480.952 169.41L480.935 172.41L483.935 172.392ZM506.435 172.258L509.435 172.24L509.451 169.24L506.451 169.258L506.435 172.258ZM506.061 239.757L503.061 239.775L503.045 242.775L506.045 242.757L506.061 239.757ZM528.561 239.623L531.561 239.605L531.578 236.605L528.578 236.623L528.561 239.623ZM528.499 250.873L528.482 253.872L531.482 253.855L531.499 250.855L528.499 250.873ZM464 251.257L464.062 240.008L458.062 240.043L458 251.293L464 251.257ZM461.046 243.026L483.545 242.891L483.578 236.891L461.079 237.026L461.046 243.026ZM486.562 239.873L486.811 194.874L480.811 194.91L480.562 239.909L486.562 239.873ZM483.827 191.892L472.578 191.959L472.544 197.959L483.794 197.892L483.827 191.892ZM475.561 194.941L475.623 183.691L469.623 183.727L469.561 194.977L475.561 194.941ZM472.607 186.709L483.856 186.642L483.89 180.642L472.64 180.709L472.607 186.709ZM486.873 183.624L486.935 172.374L480.935 172.41L480.873 183.66L486.873 183.624ZM483.919 175.392L506.418 175.258L506.451 169.258L483.952 169.392L483.919 175.392ZM503.435 172.276L503.061 239.775L509.061 239.739L509.435 172.24L503.435 172.276ZM506.045 242.757L528.544 242.623L528.578 236.623L506.078 236.757L506.045 242.757ZM525.561 239.641L525.499 250.89L531.499 250.855L531.561 239.605L525.561 239.641ZM528.515 247.873L461.017 248.275L460.983 254.275L528.482 253.872L528.515 247.873ZM573.498 250.604L570.498 250.622L570.481 253.622L573.481 253.604L573.498 250.604ZM573.871 183.105L576.871 183.087L576.888 180.087L573.888 180.105L573.871 183.105ZM551.372 183.239L548.372 183.257L548.355 186.257L551.355 186.239L551.372 183.239ZM551.434 171.989L551.451 168.99L548.451 169.007L548.434 172.007L551.434 171.989ZM618.933 171.587L621.933 171.569L621.949 168.569L618.949 168.587L618.933 171.587ZM618.871 182.836L618.854 185.836L621.854 185.819L621.871 182.819L618.871 182.836ZM596.371 182.971L596.388 179.971L593.388 179.989L593.371 182.989L596.371 182.971ZM595.998 250.47L595.981 253.47L598.981 253.452L598.997 250.452L595.998 250.47ZM576.498 250.586L576.871 183.087L570.871 183.123L570.498 250.622L576.498 250.586ZM573.888 180.105L551.388 180.239L551.355 186.239L573.855 186.105L573.888 180.105ZM554.372 183.221L554.434 171.972L548.434 172.007L548.372 183.257L554.372 183.221ZM551.417 174.989L618.916 174.587L618.949 168.587L551.451 168.99L551.417 174.989ZM615.933 171.605L615.871 182.854L621.871 182.819L621.933 171.569L615.933 171.605ZM618.887 179.836L596.388 179.971L596.354 185.971L618.854 185.836L618.887 179.836ZM593.371 182.989L592.998 250.488L598.997 250.452L599.371 182.953L593.371 182.989ZM596.014 247.47L573.515 247.604L573.481 253.604L595.981 253.47L596.014 247.47Z" fill="black" mask="url(#path-4-outside-1_2702_104)"/>
<path d="M208.74 32.4683L176.872 18.5198L155.019 35.9128L142.735 55.8437L157.814 62.8179L188.254 70.534L215.932 87.8817L235.548 78.3119L248.769 69.7946L259.261 54.0632L258.065 48.556L245.616 43.1074L208.74 32.4683Z" fill="#E5E7EB" stroke="#1C1B15" stroke-width="5"/>
<path d="M263.758 62.2809L258.916 53.0096L238.557 71.0564L228.136 78.5986L212.223 86.4879L219.648 97.9904L213.639 214.745L211.17 228.519L213.882 239.349L249.152 200.03L263.758 62.2809Z" fill="#E5E7EB" stroke="#1C1B15" stroke-width="5"/>
<path d="M136.125 225.206L119.39 220.517L118.601 185.9L123.177 158.824L128.754 139.275L133.739 114.506L137.231 91.888L141.531 59.3727L153.475 64.6007L185.047 70.5105L212.719 90.5317L219.098 98.0692L219.357 103.982L217.55 121.118L214.826 149.453L212.347 186.332L213.433 218.971L212.62 228.633L210.827 241.85L189.184 235.392L178.246 234.987L136.125 225.206Z" fill="#2D2D2D" stroke="#1C1B15" stroke-width="5"/>
<mask id="path-9-outside-2_2702_104" maskUnits="userSpaceOnUse" x="266.758" y="67.8904" width="265.74" height="87.5178" fill="black">
<rect fill="white" x="266.758" y="67.8904" width="265.74" height="87.5178"/>
<path d="M292.285 151.916L292.385 140.666L281.135 140.773L281.235 129.524L269.985 129.631L270.283 95.8819L281.533 95.7749L281.632 84.5253L292.882 84.4183L292.981 73.1688L349.229 72.6336L349.129 83.8832L304.131 84.3113L304.032 95.5608L292.782 95.6679L292.484 129.417L303.734 129.31L303.634 140.559L326.133 140.345L326.332 117.846L315.083 117.953L315.182 106.703L348.93 106.382L348.533 151.381L292.285 151.916ZM359.782 151.274L360.478 72.5266L439.225 71.7774L439.125 83.027L382.878 83.5621L382.679 106.061L427.677 105.633L427.577 116.883L382.579 117.311L382.381 139.81L438.628 139.275L438.529 150.524L359.782 151.274Z"/>
<path d="M472.277 150.203L472.376 138.954L461.127 139.061L461.226 127.811L449.977 127.918L450.275 94.1695L461.525 94.0625L461.624 82.8129L472.874 82.7059L472.973 71.4563L506.722 71.1352L506.622 82.3848L517.872 82.2778L517.772 93.5273L529.022 93.4203L528.723 127.169L517.474 127.276L517.374 138.526L506.125 138.633L506.026 149.882L472.277 150.203ZM483.626 138.847L506.125 138.633L506.523 93.6344L495.273 93.7414L495.373 82.4918L472.874 82.7059L472.476 127.704L483.725 127.597L483.626 138.847Z"/>
</mask>
<path d="M292.285 151.916L292.385 140.666L281.135 140.773L281.235 129.524L269.985 129.631L270.283 95.8819L281.533 95.7749L281.632 84.5253L292.882 84.4183L292.981 73.1688L349.229 72.6336L349.129 83.8832L304.131 84.3113L304.032 95.5608L292.782 95.6679L292.484 129.417L303.734 129.31L303.634 140.559L326.133 140.345L326.332 117.846L315.083 117.953L315.182 106.703L348.93 106.382L348.533 151.381L292.285 151.916ZM359.782 151.274L360.478 72.5266L439.225 71.7774L439.125 83.027L382.878 83.5621L382.679 106.061L427.677 105.633L427.577 116.883L382.579 117.311L382.381 139.81L438.628 139.275L438.529 150.524L359.782 151.274Z" fill="#ECCC58"/>
<path d="M472.277 150.203L472.376 138.954L461.127 139.061L461.226 127.811L449.977 127.918L450.275 94.1695L461.525 94.0625L461.624 82.8129L472.874 82.7059L472.973 71.4563L506.722 71.1352L506.622 82.3848L517.872 82.2778L517.772 93.5273L529.022 93.4203L528.723 127.169L517.474 127.276L517.374 138.526L506.125 138.633L506.026 149.882L472.277 150.203ZM483.626 138.847L506.125 138.633L506.523 93.6344L495.273 93.7414L495.373 82.4918L472.874 82.7059L472.476 127.704L483.725 127.597L483.626 138.847Z" fill="#E5E7EB"/>
<path d="M292.285 151.916L289.285 151.944L289.259 154.944L292.259 154.916L292.285 151.916ZM292.385 140.666L295.384 140.638L295.411 137.638L292.411 137.666L292.385 140.666ZM281.135 140.773L278.135 140.802L278.109 143.802L281.109 143.773L281.135 140.773ZM281.235 129.524L284.234 129.495L284.261 126.495L281.261 126.524L281.235 129.524ZM269.985 129.631L266.985 129.659L266.959 132.659L269.959 132.631L269.985 129.631ZM270.283 95.8819L270.31 92.882L267.31 92.9106L267.284 95.9105L270.283 95.8819ZM281.533 95.7749L281.506 98.7748L284.506 98.7462L284.533 95.7464L281.533 95.7749ZM281.632 84.5253L281.659 81.5255L278.659 81.554L278.633 84.5539L281.632 84.5253ZM292.882 84.4183L292.855 87.4182L295.855 87.3897L295.882 84.3898L292.882 84.4183ZM292.981 73.1688L293.008 70.1689L290.008 70.1974L289.982 73.1973L292.981 73.1688ZM349.229 72.6336L352.229 72.6051L352.255 69.6052L349.255 69.6337L349.229 72.6336ZM349.129 83.8832L349.103 86.8831L352.103 86.8545L352.129 83.8546L349.129 83.8832ZM304.131 84.3113L304.158 81.3114L301.158 81.3399L301.132 84.3398L304.131 84.3113ZM304.032 95.5608L304.005 98.5607L307.005 98.5322L307.032 95.5323L304.032 95.5608ZM292.782 95.6679L292.809 92.668L289.809 92.6965L289.783 95.6964L292.782 95.6679ZM292.484 129.417L289.484 129.445L289.458 132.445L292.458 132.416L292.484 129.417ZM303.734 129.31L306.733 129.281L306.76 126.281L303.76 126.31L303.734 129.31ZM303.634 140.559L300.634 140.588L300.608 143.588L303.608 143.559L303.634 140.559ZM326.133 140.345L326.107 143.345L329.106 143.316L329.133 140.317L326.133 140.345ZM326.332 117.846L329.332 117.817L329.358 114.818L326.359 114.846L326.332 117.846ZM315.083 117.953L312.083 117.981L312.056 120.981L315.056 120.953L315.083 117.953ZM315.182 106.703L315.209 103.704L312.209 103.732L312.182 106.732L315.182 106.703ZM348.93 106.382L351.93 106.354L351.957 103.354L348.957 103.382L348.93 106.382ZM348.533 151.381L348.506 154.38L351.506 154.352L351.532 151.352L348.533 151.381ZM295.285 151.887L295.384 140.638L289.385 140.695L289.285 151.944L295.285 151.887ZM292.411 137.666L281.162 137.773L281.109 143.773L292.358 143.666L292.411 137.666ZM284.135 140.745L284.234 129.495L278.235 129.552L278.135 140.802L284.135 140.745ZM281.261 126.524L270.012 126.631L269.959 132.631L281.208 132.523L281.261 126.524ZM272.985 129.602L273.283 95.8534L267.284 95.9105L266.985 129.659L272.985 129.602ZM270.257 98.8818L281.506 98.7748L281.56 92.775L270.31 92.882L270.257 98.8818ZM284.533 95.7464L284.632 84.4968L278.633 84.5539L278.533 95.8034L284.533 95.7464ZM281.606 87.5252L292.855 87.4182L292.908 81.4184L281.659 81.5255L281.606 87.5252ZM295.882 84.3898L295.981 73.1402L289.982 73.1973L289.882 84.4469L295.882 84.3898ZM292.955 76.1686L349.202 75.6335L349.255 69.6337L293.008 70.1689L292.955 76.1686ZM346.229 72.6622L346.13 83.9117L352.129 83.8546L352.229 72.6051L346.229 72.6622ZM349.156 80.8833L304.158 81.3114L304.105 87.3112L349.103 86.8831L349.156 80.8833ZM301.132 84.3398L301.032 95.5894L307.032 95.5323L307.131 84.2827L301.132 84.3398ZM304.058 92.561L292.809 92.668L292.756 98.6678L304.005 98.5607L304.058 92.561ZM289.783 95.6964L289.484 129.445L295.484 129.388L295.782 95.6393L289.783 95.6964ZM292.458 132.416L303.707 132.309L303.76 126.31L292.511 126.417L292.458 132.416ZM300.734 129.338L300.634 140.588L306.634 140.531L306.733 129.281L300.734 129.338ZM303.608 143.559L326.107 143.345L326.16 137.345L303.661 137.559L303.608 143.559ZM329.133 140.317L329.332 117.817L323.332 117.874L323.133 140.374L329.133 140.317ZM326.359 114.846L315.109 114.953L315.056 120.953L326.305 120.846L326.359 114.846ZM318.082 117.924L318.182 106.675L312.182 106.732L312.083 117.981L318.082 117.924ZM315.155 109.703L348.904 109.382L348.957 103.382L315.209 103.704L315.155 109.703ZM345.931 106.411L345.533 151.409L351.532 151.352L351.93 106.354L345.931 106.411ZM348.559 148.381L292.312 148.916L292.259 154.916L348.506 154.38L348.559 148.381ZM359.782 151.274L356.782 151.302L356.756 154.302L359.756 154.273L359.782 151.274ZM360.478 72.5266L360.505 69.5267L357.505 69.5553L357.478 72.5551L360.478 72.5266ZM439.225 71.7774L442.225 71.7489L442.251 68.749L439.251 68.7775L439.225 71.7774ZM439.125 83.027L439.099 86.0268L442.099 85.9983L442.125 82.9984L439.125 83.027ZM382.878 83.5621L382.904 80.5622L379.905 80.5908L379.878 83.5906L382.878 83.5621ZM382.679 106.061L379.679 106.09L379.653 109.09L382.652 109.061L382.679 106.061ZM427.677 105.633L430.677 105.605L430.703 102.605L427.703 102.633L427.677 105.633ZM427.577 116.883L427.551 119.883L430.551 119.854L430.577 116.854L427.577 116.883ZM382.579 117.311L382.606 114.311L379.606 114.339L379.58 117.339L382.579 117.311ZM382.381 139.81L379.381 139.838L379.354 142.838L382.354 142.81L382.381 139.81ZM438.628 139.275L441.628 139.246L441.654 136.246L438.655 136.275L438.628 139.275ZM438.529 150.524L438.502 153.524L441.502 153.496L441.528 150.496L438.529 150.524ZM362.782 151.245L363.478 72.4981L357.478 72.5551L356.782 151.302L362.782 151.245ZM360.452 75.5265L439.198 74.7773L439.251 68.7775L360.505 69.5267L360.452 75.5265ZM436.225 71.8059L436.125 83.0555L442.125 82.9984L442.225 71.7489L436.225 71.8059ZM439.152 80.0271L382.904 80.5622L382.851 86.562L439.099 86.0268L439.152 80.0271ZM379.878 83.5906L379.679 106.09L385.679 106.033L385.878 83.5336L379.878 83.5906ZM382.652 109.061L427.65 108.633L427.703 102.633L382.705 103.061L382.652 109.061ZM424.677 105.662L424.578 116.911L430.577 116.854L430.677 105.605L424.677 105.662ZM427.604 113.883L382.606 114.311L382.553 120.311L427.551 119.883L427.604 113.883ZM379.58 117.339L379.381 139.838L385.38 139.781L385.579 117.282L379.58 117.339ZM382.354 142.81L438.601 142.275L438.655 136.275L382.407 136.81L382.354 142.81ZM435.628 139.303L435.529 150.553L441.528 150.496L441.628 139.246L435.628 139.303ZM438.555 147.524L359.809 148.274L359.756 154.273L438.502 153.524L438.555 147.524ZM472.277 150.203L469.277 150.232L469.251 153.232L472.251 153.203L472.277 150.203ZM472.376 138.954L475.376 138.925L475.403 135.925L472.403 135.954L472.376 138.954ZM461.127 139.061L458.127 139.089L458.101 142.089L461.1 142.061L461.127 139.061ZM461.226 127.811L464.226 127.783L464.253 124.783L461.253 124.811L461.226 127.811ZM449.977 127.918L446.977 127.947L446.951 130.947L449.95 130.918L449.977 127.918ZM450.275 94.1695L450.302 91.1696L447.302 91.1982L447.276 94.198L450.275 94.1695ZM461.525 94.0625L461.498 97.0623L464.498 97.0338L464.525 94.0339L461.525 94.0625ZM461.624 82.8129L461.651 79.813L458.651 79.8416L458.624 82.8414L461.624 82.8129ZM472.874 82.7059L472.847 85.7058L475.847 85.6772L475.874 82.6773L472.874 82.7059ZM472.973 71.4563L473 68.4564L470 68.485L469.973 71.4849L472.973 71.4563ZM506.722 71.1352L509.722 71.1067L509.748 68.1068L506.748 68.1354L506.722 71.1352ZM506.622 82.3848L503.622 82.4133L503.596 85.4132L506.596 85.3847L506.622 82.3848ZM517.872 82.2778L520.872 82.2492L520.898 79.2493L517.898 79.2779L517.872 82.2778ZM517.772 93.5273L514.772 93.5559L514.746 96.5558L517.746 96.5272L517.772 93.5273ZM529.022 93.4203L532.022 93.3918L532.048 90.3919L529.048 90.4204L529.022 93.4203ZM528.723 127.169L528.697 130.169L531.697 130.14L531.723 127.14L528.723 127.169ZM517.474 127.276L517.5 124.276L514.501 124.305L514.474 127.305L517.474 127.276ZM517.374 138.526L517.348 141.525L520.348 141.497L520.374 138.497L517.374 138.526ZM506.125 138.633L506.151 135.633L503.152 135.661L503.125 138.661L506.125 138.633ZM506.026 149.882L505.999 152.882L508.999 152.854L509.025 149.854L506.026 149.882ZM483.626 138.847L480.626 138.875L480.6 141.875L483.599 141.847L483.626 138.847ZM506.125 138.633L506.098 141.632L509.098 141.604L509.125 138.604L506.125 138.633ZM506.523 93.6344L509.523 93.6058L509.549 90.6059L506.549 90.6345L506.523 93.6344ZM495.273 93.7414L492.273 93.7699L492.247 96.7698L495.247 96.7413L495.273 93.7414ZM495.373 82.4918L498.373 82.4633L498.399 79.4634L495.399 79.4919L495.373 82.4918ZM472.874 82.7059L472.9 79.706L469.9 79.7345L469.874 82.7344L472.874 82.7059ZM472.476 127.704L469.476 127.733L469.45 130.733L472.449 130.704L472.476 127.704ZM483.725 127.597L486.725 127.569L486.752 124.569L483.752 124.597L483.725 127.597ZM475.277 150.175L475.376 138.925L469.377 138.982L469.277 150.232L475.277 150.175ZM472.403 135.954L461.154 136.061L461.1 142.061L472.35 141.954L472.403 135.954ZM464.127 139.032L464.226 127.783L458.227 127.84L458.127 139.089L464.127 139.032ZM461.253 124.811L450.003 124.918L449.95 130.918L461.2 130.811L461.253 124.811ZM452.977 127.89L453.275 94.141L447.276 94.198L446.977 127.947L452.977 127.89ZM450.249 97.1694L461.498 97.0623L461.551 91.0626L450.302 91.1696L450.249 97.1694ZM464.525 94.0339L464.624 82.7844L458.624 82.8414L458.525 94.091L464.525 94.0339ZM461.598 85.8128L472.847 85.7058L472.9 79.706L461.651 79.813L461.598 85.8128ZM475.874 82.6773L475.973 71.4278L469.973 71.4849L469.874 82.7344L475.874 82.6773ZM472.947 74.4562L506.695 74.1351L506.748 68.1354L473 68.4564L472.947 74.4562ZM503.722 71.1638L503.622 82.4133L509.622 82.3563L509.722 71.1067L503.722 71.1638ZM506.596 85.3847L517.845 85.2777L517.898 79.2779L506.649 79.3849L506.596 85.3847ZM514.872 82.3063L514.772 93.5559L520.772 93.4988L520.872 82.2492L514.872 82.3063ZM517.746 96.5272L528.995 96.4202L529.048 90.4204L517.799 90.5274L517.746 96.5272ZM526.022 93.4488L525.724 127.198L531.723 127.14L532.022 93.3918L526.022 93.4488ZM528.75 124.169L517.5 124.276L517.447 130.276L528.697 130.169L528.75 124.169ZM514.474 127.305L514.375 138.554L520.374 138.497L520.474 127.247L514.474 127.305ZM517.401 135.526L506.151 135.633L506.098 141.632L517.348 141.525L517.401 135.526ZM503.125 138.661L503.026 149.911L509.025 149.854L509.125 138.604L503.125 138.661ZM506.052 146.882L472.304 147.203L472.251 153.203L505.999 152.882L506.052 146.882ZM483.599 141.847L506.098 141.632L506.151 135.633L483.653 135.847L483.599 141.847ZM509.125 138.604L509.523 93.6058L503.523 93.6629L503.125 138.661L509.125 138.604ZM506.549 90.6345L495.3 90.7415L495.247 96.7413L506.496 96.6342L506.549 90.6345ZM498.273 93.7128L498.373 82.4633L492.373 82.5204L492.273 93.7699L498.273 93.7128ZM495.399 79.4919L472.9 79.706L472.847 85.7058L495.346 85.4917L495.399 79.4919ZM469.874 82.7344L469.476 127.733L475.476 127.676L475.874 82.6773L469.874 82.7344ZM472.449 130.704L483.699 130.597L483.752 124.597L472.502 124.704L472.449 130.704ZM480.726 127.626L480.626 138.875L486.626 138.818L486.725 127.569L480.726 127.626Z" fill="black" mask="url(#path-9-outside-2_2702_104)"/>
<mask id="path-11-outside-3_2702_104" maskUnits="userSpaceOnUse" x="143.958" y="115.087" width="60.5985" height="68.5682" fill="black">
<rect fill="white" x="143.958" y="115.087" width="60.5985" height="68.5682"/>
<path d="M147.741 179.869L147.819 171.12L165.318 170.953L165.627 135.955L156.878 136.038L156.955 127.288L165.705 127.205L165.782 118.455L183.281 118.289L182.817 170.787L200.316 170.62L200.239 179.37L147.741 179.869Z"/>
</mask>
<path d="M147.741 179.869L147.819 171.12L165.318 170.953L165.627 135.955L156.878 136.038L156.955 127.288L165.705 127.205L165.782 118.455L183.281 118.289L182.817 170.787L200.316 170.62L200.239 179.37L147.741 179.869Z" fill="#ECCC58"/>
<path d="M147.741 179.869L144.741 179.898L144.715 182.898L147.715 182.869L147.741 179.869ZM147.819 171.12L147.845 168.12L144.845 168.148L144.819 171.148L147.819 171.12ZM165.318 170.953L165.291 173.953L168.291 173.925L168.318 170.925L165.318 170.953ZM165.627 135.955L168.627 135.926L168.654 132.926L165.654 132.955L165.627 135.955ZM156.878 136.038L153.878 136.066L153.851 139.066L156.851 139.038L156.878 136.038ZM156.955 127.288L156.982 124.288L153.982 124.317L153.955 127.317L156.955 127.288ZM165.705 127.205L165.678 130.205L168.678 130.176L168.705 127.176L165.705 127.205ZM165.782 118.455L165.809 115.455L162.809 115.484L162.782 118.484L165.782 118.455ZM183.281 118.289L186.281 118.26L186.308 115.26L183.308 115.289L183.281 118.289ZM182.817 170.787L179.817 170.815L179.791 173.815L182.791 173.787L182.817 170.787ZM200.316 170.62L203.316 170.592L203.343 167.592L200.343 167.62L200.316 170.62ZM200.239 179.37L200.212 182.37L203.212 182.341L203.239 179.341L200.239 179.37ZM150.741 179.841L150.819 171.091L144.819 171.148L144.741 179.898L150.741 179.841ZM147.792 174.12L165.291 173.953L165.344 167.953L147.845 168.12L147.792 174.12ZM168.318 170.925L168.627 135.926L162.627 135.983L162.318 170.982L168.318 170.925ZM165.654 132.955L156.904 133.038L156.851 139.038L165.601 138.955L165.654 132.955ZM159.878 136.009L159.955 127.26L153.955 127.317L153.878 136.066L159.878 136.009ZM156.929 130.288L165.678 130.205L165.731 124.205L156.982 124.288L156.929 130.288ZM168.705 127.176L168.782 118.427L162.782 118.484L162.705 127.234L168.705 127.176ZM165.755 121.455L183.255 121.289L183.308 115.289L165.809 115.455L165.755 121.455ZM180.281 118.317L179.817 170.815L185.817 170.758L186.281 118.26L180.281 118.317ZM182.791 173.787L200.29 173.62L200.343 167.62L182.844 167.787L182.791 173.787ZM197.316 170.649L197.239 179.399L203.239 179.341L203.316 170.592L197.316 170.649ZM200.265 176.37L147.768 176.87L147.715 182.869L200.212 182.37L200.265 176.37Z" fill="black" mask="url(#path-11-outside-3_2702_104)"/>
<mask id="path-13-outside-4_2702_104" maskUnits="userSpaceOnUse" x="41.984" y="154.999" width="68.5981" height="68.6443" fill="black">
<rect fill="white" x="41.984" y="154.999" width="68.5981" height="68.6443"/>
<path d="M62.5163 219.698L62.5936 210.949L53.844 211.032L53.9214 202.282L45.1718 202.365L45.4039 176.117L54.1535 176.033L54.2308 167.284L62.9804 167.2L63.0578 158.451L89.3066 158.201L89.2293 166.951L97.9789 166.867L97.9015 175.617L106.651 175.534L106.419 201.783L97.6694 201.866L97.5921 210.616L88.8424 210.699L88.7651 219.449L62.5163 219.698ZM71.3432 210.865L88.8424 210.699L89.1519 175.7L80.4023 175.784L80.4797 167.034L62.9804 167.2L62.671 202.199L71.4206 202.116L71.3432 210.865Z"/>
</mask>
<path d="M62.5163 219.698L62.5936 210.949L53.844 211.032L53.9214 202.282L45.1718 202.365L45.4039 176.117L54.1535 176.033L54.2308 167.284L62.9804 167.2L63.0578 158.451L89.3066 158.201L89.2293 166.951L97.9789 166.867L97.9015 175.617L106.651 175.534L106.419 201.783L97.6694 201.866L97.5921 210.616L88.8424 210.699L88.7651 219.449L62.5163 219.698ZM71.3432 210.865L88.8424 210.699L89.1519 175.7L80.4023 175.784L80.4797 167.034L62.9804 167.2L62.671 202.199L71.4206 202.116L71.3432 210.865Z" fill="#E5E7EB"/>
<path d="M62.5163 219.698L59.5164 219.727L59.4899 222.727L62.4897 222.698L62.5163 219.698ZM62.5936 210.949L65.5935 210.92L65.62 207.92L62.6202 207.949L62.5936 210.949ZM53.844 211.032L50.8442 211.06L50.8176 214.06L53.8175 214.032L53.844 211.032ZM53.9214 202.282L56.9213 202.254L56.9478 199.254L53.9479 199.282L53.9214 202.282ZM45.1718 202.365L42.1719 202.394L42.1454 205.394L45.1453 205.365L45.1718 202.365ZM45.4039 176.117L45.4304 173.117L42.4305 173.145L42.404 176.145L45.4039 176.117ZM54.1535 176.033L54.127 179.033L57.1268 179.005L57.1533 176.005L54.1535 176.033ZM54.2308 167.284L54.2574 164.284L51.2575 164.312L51.231 167.312L54.2308 167.284ZM62.9804 167.2L62.9539 170.2L65.9538 170.172L65.9803 167.172L62.9804 167.2ZM63.0578 158.451L63.0843 155.451L60.0845 155.479L60.0579 158.479L63.0578 158.451ZM89.3066 158.201L92.3065 158.172L92.333 155.173L89.3331 155.201L89.3066 158.201ZM89.2293 166.951L86.2294 166.979L86.2029 169.979L89.2027 169.951L89.2293 166.951ZM97.9789 166.867L100.979 166.839L101.005 163.839L98.0054 163.867L97.9789 166.867ZM97.9015 175.617L94.9016 175.646L94.8751 178.645L97.875 178.617L97.9015 175.617ZM106.651 175.534L109.651 175.505L109.677 172.505L106.678 172.534L106.651 175.534ZM106.419 201.783L106.393 204.783L109.392 204.754L109.419 201.754L106.419 201.783ZM97.6694 201.866L97.6959 198.866L94.6961 198.895L94.6696 201.895L97.6694 201.866ZM97.5921 210.616L97.5655 213.616L100.565 213.587L100.592 210.587L97.5921 210.616ZM88.8424 210.699L88.869 207.699L85.8691 207.728L85.8426 210.727L88.8424 210.699ZM88.7651 219.449L88.7386 222.448L91.7384 222.42L91.765 219.42L88.7651 219.449ZM71.3432 210.865L68.3434 210.894L68.3169 213.894L71.3167 213.865L71.3432 210.865ZM88.8424 210.699L88.8159 213.699L91.8158 213.67L91.8423 210.67L88.8424 210.699ZM89.1519 175.7L92.1518 175.672L92.1783 172.672L89.1784 172.7L89.1519 175.7ZM80.4023 175.784L77.4024 175.812L77.3759 178.812L80.3758 178.783L80.4023 175.784ZM80.4797 167.034L83.4795 167.005L83.506 164.005L80.5062 164.034L80.4797 167.034ZM62.9804 167.2L63.007 164.2L60.0071 164.229L59.9806 167.229L62.9804 167.2ZM62.671 202.199L59.6711 202.228L59.6446 205.227L62.6445 205.199L62.671 202.199ZM71.4206 202.116L74.4205 202.087L74.447 199.087L71.4471 199.116L71.4206 202.116ZM65.5161 219.67L65.5935 210.92L59.5938 210.977L59.5164 219.727L65.5161 219.67ZM62.6202 207.949L53.8706 208.032L53.8175 214.032L62.5671 213.949L62.6202 207.949ZM56.8439 211.003L56.9213 202.254L50.9215 202.311L50.8442 211.06L56.8439 211.003ZM53.9479 199.282L45.1983 199.366L45.1453 205.365L53.8949 205.282L53.9479 199.282ZM48.1716 202.337L48.4037 176.088L42.404 176.145L42.1719 202.394L48.1716 202.337ZM45.3773 179.116L54.127 179.033L54.18 173.033L45.4304 173.117L45.3773 179.116ZM57.1533 176.005L57.2307 167.255L51.231 167.312L51.1536 176.062L57.1533 176.005ZM54.2043 170.283L62.9539 170.2L63.007 164.2L54.2574 164.284L54.2043 170.283ZM65.9803 167.172L66.0577 158.422L60.0579 158.479L59.9806 167.229L65.9803 167.172ZM63.0313 161.451L89.2801 161.201L89.3331 155.201L63.0843 155.451L63.0313 161.451ZM86.3068 158.23L86.2294 166.979L92.2291 166.922L92.3065 158.172L86.3068 158.23ZM89.2027 169.951L97.9523 169.867L98.0054 163.867L89.2558 163.951L89.2027 169.951ZM94.979 166.896L94.9016 175.646L100.901 175.589L100.979 166.839L94.979 166.896ZM97.875 178.617L106.625 178.534L106.678 172.534L97.928 172.617L97.875 178.617ZM103.651 175.562L103.419 201.811L109.419 201.754L109.651 175.505L103.651 175.562ZM106.446 198.783L97.6959 198.866L97.6429 204.866L106.393 204.783L106.446 198.783ZM94.6696 201.895L94.5922 210.644L100.592 210.587L100.669 201.837L94.6696 201.895ZM97.6186 207.616L88.869 207.699L88.8159 213.699L97.5655 213.616L97.6186 207.616ZM85.8426 210.727L85.7652 219.477L91.765 219.42L91.8423 210.67L85.8426 210.727ZM88.7916 216.449L62.5428 216.698L62.4897 222.698L88.7386 222.448L88.7916 216.449ZM71.3167 213.865L88.8159 213.699L88.869 207.699L71.3698 207.866L71.3167 213.865ZM91.8423 210.67L92.1518 175.672L86.152 175.729L85.8426 210.727L91.8423 210.67ZM89.1784 172.7L80.4288 172.784L80.3758 178.783L89.1254 178.7L89.1784 172.7ZM83.4022 175.755L83.4795 167.005L77.4798 167.062L77.4024 175.812L83.4022 175.755ZM80.5062 164.034L63.007 164.2L62.9539 170.2L80.4531 170.034L80.5062 164.034ZM59.9806 167.229L59.6711 202.228L65.6709 202.17L65.9803 167.172L59.9806 167.229ZM62.6445 205.199L71.3941 205.116L71.4471 199.116L62.6975 199.199L62.6445 205.199ZM68.4207 202.144L68.3434 210.894L74.3431 210.837L74.4205 202.087L68.4207 202.144Z" fill="black" mask="url(#path-13-outside-4_2702_104)"/>
</g>
<defs>
<filter id="filter0_d_2702_104" x="24.2324" y="15.625" width="601.717" height="273.051" filterUnits="userSpaceOnUse" color-interpolation-filters="sRGB">
<feFlood flood-opacity="0" result="BackgroundImageFix"/>
<feColorMatrix in="SourceAlpha" type="matrix" values="0 0 0 0 0 0 0 0 0 0 0 0 0 0 0 0 0 0 127 0" result="hardAlpha"/>
<feOffset dy="4"/>
<feGaussianBlur stdDeviation="2"/>
<feComposite in2="hardAlpha" operator="out"/>
<feColorMatrix type="matrix" values="0 0 0 0 0 0 0 0 0 0 0 0 0 0 0 0 0 0 0.25 0"/>
<feBlend mode="normal" in2="BackgroundImageFix" result="effect1_dropShadow_2702_104"/>
<feBlend mode="normal" in="SourceGraphic" in2="effect1_dropShadow_2702_104" result="shape"/>
</filter>
</defs>
</svg>
