<svg width="248" height="238" viewBox="0 0 248 238" fill="none" xmlns="http://www.w3.org/2000/svg">
<g filter="url(#filter0_d_2688_10)">
<path d="M28.4168 144.93L28.9062 138.448L41.8785 145.946L56.4218 152.56L74.1072 157.405L71.3966 193.303L76.5787 224.282L33.5889 195.964L28.4168 144.93Z" fill="#CCCCCC" stroke="#1C1B15" stroke-width="5"/>
<path d="M112.601 152.289L76.1008 157.556L74.5949 177.499L72.976 198.938L80.9899 225.618L107.707 217.105L128.647 218.686L164.046 221.359L191.233 219.902L223.284 213.798L241.121 190.074L240.342 127.337L218.188 135.191C207.595 138.235 185.804 144.379 183.381 144.597C180.958 144.815 156.426 147.409 144.463 148.678L112.601 152.289Z" fill="#2D2D2D" stroke="#1C1B15" stroke-width="5"/>
<path d="M63.8634 127.049L32.5841 136.22L42.4896 144.49L57.8042 154.17L75.6025 157.52L124.257 150.664L169.543 148.568L193.541 142.858L219.186 135.268L237.539 124.619L217.013 117.554L186.017 109.698C181.903 111.058 170.775 113.661 159.178 113.187C144.681 112.594 134.296 117.325 130.232 118.021C126.168 118.717 108.416 121.388 105.312 122.658C102.828 123.674 76.6447 126.009 63.8634 127.049Z" fill="#E5E7EB" stroke="#1C1B15" stroke-width="5"/>
<mask id="path-4-outside-1_2688_10" maskUnits="userSpaceOnUse" x="109" y="160" width="121" height="41" fill="black">
<rect fill="white" x="109" y="160" width="121" height="41"/>
<path d="M112 198L112 163L142 163L142 168L147 168L147 178L142 178L142 183L147 183L147 193L142 193L142 198L112 198ZM122 178L137 178L137 168L122 168L122 178ZM122 193L137 193L137 183L122 183L122 193ZM207 198L207 168L197 168L197 163L227 163L227 168L217 168L217 198L207 198Z"/>
<path d="M157 198L157 193L167 193L167 173L162 173L162 168L167 168L167 163L177 163L177 193L187 193L187 198L157 198Z"/>
</mask>
<path d="M112 198L112 163L142 163L142 168L147 168L147 178L142 178L142 183L147 183L147 193L142 193L142 198L112 198ZM122 178L137 178L137 168L122 168L122 178ZM122 193L137 193L137 183L122 183L122 193ZM207 198L207 168L197 168L197 163L227 163L227 168L217 168L217 198L207 198Z" fill="#ECD06F"/>
<path d="M157 198L157 193L167 193L167 173L162 173L162 168L167 168L167 163L177 163L177 193L187 193L187 198L157 198Z" fill="#E5E7EB"/>
<path d="M112 198L109 198L109 201L112 201L112 198ZM112 163L112 160L109 160L109 163L112 163ZM142 163L145 163L145 160L142 160L142 163ZM142 168L139 168L139 171L142 171L142 168ZM147 168L150 168L150 165L147 165L147 168ZM147 178L147 181L150 181L150 178L147 178ZM142 178L142 175L139 175L139 178L142 178ZM142 183L139 183L139 186L142 186L142 183ZM147 183L150 183L150 180L147 180L147 183ZM147 193L147 196L150 196L150 193L147 193ZM142 193L142 190L139 190L139 193L142 193ZM142 198L142 201L145 201L145 198L142 198ZM122 178L119 178L119 181L122 181L122 178ZM137 178L137 181L140 181L140 178L137 178ZM137 168L140 168L140 165L137 165L137 168ZM122 168L122 165L119 165L119 168L122 168ZM122 193L119 193L119 196L122 196L122 193ZM137 193L137 196L140 196L140 193L137 193ZM137 183L140 183L140 180L137 180L137 183ZM122 183L122 180L119 180L119 183L122 183ZM115 198L115 163L109 163L109 198L115 198ZM112 166L142 166L142 160L112 160L112 166ZM139 163L139 168L145 168L145 163L139 163ZM142 171L147 171L147 165L142 165L142 171ZM144 168L144 178L150 178L150 168L144 168ZM147 175L142 175L142 181L147 181L147 175ZM139 178L139 183L145 183L145 178L139 178ZM142 186L147 186L147 180L142 180L142 186ZM144 183L144 193L150 193L150 183L144 183ZM147 190L142 190L142 196L147 196L147 190ZM139 193L139 198L145 198L145 193L139 193ZM142 195L112 195L112 201L142 201L142 195ZM122 181L137 181L137 175L122 175L122 181ZM140 178L140 168L134 168L134 178L140 178ZM137 165L122 165L122 171L137 171L137 165ZM119 168L119 178L125 178L125 168L119 168ZM122 196L137 196L137 190L122 190L122 196ZM140 193L140 183L134 183L134 193L140 193ZM137 180L122 180L122 186L137 186L137 180ZM119 183L119 193L125 193L125 183L119 183ZM157 198L154 198L154 201L157 201L157 198ZM157 193L157 190L154 190L154 193L157 193ZM167 193L167 196L170 196L170 193L167 193ZM167 173L170 173L170 170L167 170L167 173ZM162 173L159 173L159 176L162 176L162 173ZM162 168L162 165L159 165L159 168L162 168ZM167 168L167 171L170 171L170 168L167 168ZM167 163L167 160L164 160L164 163L167 163ZM177 163L180 163L180 160L177 160L177 163ZM177 193L174 193L174 196L177 196L177 193ZM187 193L190 193L190 190L187 190L187 193ZM187 198L187 201L190 201L190 198L187 198ZM160 198L160 193L154 193L154 198L160 198ZM157 196L167 196L167 190L157 190L157 196ZM170 193L170 173L164 173L164 193L170 193ZM167 170L162 170L162 176L167 176L167 170ZM165 173L165 168L159 168L159 173L165 173ZM162 171L167 171L167 165L162 165L162 171ZM170 168L170 163L164 163L164 168L170 168ZM167 166L177 166L177 160L167 160L167 166ZM174 163L174 193L180 193L180 163L174 163ZM177 196L187 196L187 190L177 190L177 196ZM184 193L184 198L190 198L190 193L184 193ZM187 195L157 195L157 201L187 201L187 195ZM207 198L204 198L204 201L207 201L207 198ZM207 168L210 168L210 165L207 165L207 168ZM197 168L194 168L194 171L197 171L197 168ZM197 163L197 160L194 160L194 163L197 163ZM227 163L230 163L230 160L227 160L227 163ZM227 168L227 171L230 171L230 168L227 168ZM217 168L217 165L214 165L214 168L217 168ZM217 198L217 201L220 201L220 198L217 198ZM210 198L210 168L204 168L204 198L210 198ZM207 165L197 165L197 171L207 171L207 165ZM200 168L200 163L194 163L194 168L200 168ZM197 166L227 166L227 160L197 160L197 166ZM224 163L224 168L230 168L230 163L224 163ZM227 165L217 165L217 171L227 171L227 165ZM214 168L214 198L220 198L220 168L214 168ZM217 195L207 195L207 201L217 201L217 195Z" fill="black" mask="url(#path-4-outside-1_2688_10)"/>
<path d="M10.7122 100.853L6.79853 132.613L29.647 147.519L52.1074 153.31L54.3136 138.187L52.7413 109.28L61.0966 80.3614L46.3104 65.441L34.3864 55.9112L15.1852 47.4831L11.5591 53.0982L10.0303 65.5044L10.7122 100.853Z" fill="#CCCCCC" stroke="#1C1B15" stroke-width="5"/>
<path d="M23.8148 39.4952L16.4464 46.1439L39.4783 59.5615L49.6619 66.8618L61.7763 78.9341L70.5042 69.4301L182.837 44.9852L196.603 43.6588L203.543 40.4838L158.54 17.3058L23.8148 39.4952Z" fill="#E5E7EB" stroke="#1C1B15" stroke-width="5"/>
<path d="M214.733 113.615L215.093 130.284L182.466 140.37L155.456 143.479L135.3 143.632L110.362 145.741L87.8938 148.643L55.8005 153.477L57.3293 141.071L53.8643 110.417L64.912 79.536L70.232 71.6272L75.7693 69.7907L92.5512 66.8209L120.224 61.6667L155.935 53.9764L186.598 44.1528L196.001 42.2889L207.095 42.3066L211.805 47.259L214.583 52.1354L219.38 75.9005L214.733 113.615Z" fill="#2D2D2D" stroke="#1C1B15" stroke-width="5"/>
<mask id="path-9-outside-2_2688_10" maskUnits="userSpaceOnUse" x="68" y="83" width="121" height="41" fill="black">
<rect fill="white" x="68" y="83" width="121" height="41"/>
<path d="M81 121L81 116L76 116L76 111L71 111L71 96L76 96L76 91L81 91L81 86L106 86L106 91L86 91L86 96L81 96L81 111L86 111L86 116L96 116L96 106L91 106L91 101L106 101L106 121L81 121ZM111 121L111 86L146 86L146 91L121 91L121 101L141 101L141 106L121 106L121 116L146 116L146 121L111 121Z"/>
<path d="M161 121L161 116L156 116L156 111L151 111L151 96L156 96L156 91L161 91L161 86L176 86L176 91L181 91L181 96L186 96L186 111L181 111L181 116L176 116L176 121L161 121ZM166 116L176 116L176 96L171 96L171 91L161 91L161 111L166 111L166 116Z"/>
</mask>
<path d="M81 121L81 116L76 116L76 111L71 111L71 96L76 96L76 91L81 91L81 86L106 86L106 91L86 91L86 96L81 96L81 111L86 111L86 116L96 116L96 106L91 106L91 101L106 101L106 121L81 121ZM111 121L111 86L146 86L146 91L121 91L121 101L141 101L141 106L121 106L121 116L146 116L146 121L111 121Z" fill="#ECD06F"/>
<path d="M161 121L161 116L156 116L156 111L151 111L151 96L156 96L156 91L161 91L161 86L176 86L176 91L181 91L181 96L186 96L186 111L181 111L181 116L176 116L176 121L161 121ZM166 116L176 116L176 96L171 96L171 91L161 91L161 111L166 111L166 116Z" fill="#E5E7EB"/>
<path d="M81 121L78 121L78 124L81 124L81 121ZM81 116L84 116L84 113L81 113L81 116ZM76 116L73 116L73 119L76 119L76 116ZM76 111L79 111L79 108L76 108L76 111ZM71 111L68 111L68 114L71 114L71 111ZM71 96L71 93L68 93L68 96L71 96ZM76 96L76 99L79 99L79 96L76 96ZM76 91L76 88L73 88L73 91L76 91ZM81 91L81 94L84 94L84 91L81 91ZM81 86L81 83L78 83L78 86L81 86ZM106 86L109 86L109 83L106 83L106 86ZM106 91L106 94L109 94L109 91L106 91ZM86 91L86 88L83 88L83 91L86 91ZM86 96L86 99L89 99L89 96L86 96ZM81 96L81 93L78 93L78 96L81 96ZM81 111L78 111L78 114L81 114L81 111ZM86 111L89 111L89 108L86 108L86 111ZM86 116L83 116L83 119L86 119L86 116ZM96 116L96 119L99 119L99 116L96 116ZM96 106L99 106L99 103L96 103L96 106ZM91 106L88 106L88 109L91 109L91 106ZM91 101L91 98L88 98L88 101L91 101ZM106 101L109 101L109 98L106 98L106 101ZM106 121L106 124L109 124L109 121L106 121ZM84 121L84 116L78 116L78 121L84 121ZM81 113L76 113L76 119L81 119L81 113ZM79 116L79 111L73 111L73 116L79 116ZM76 108L71 108L71 114L76 114L76 108ZM74 111L74 96L68 96L68 111L74 111ZM71 99L76 99L76 93L71 93L71 99ZM79 96L79 91L73 91L73 96L79 96ZM76 94L81 94L81 88L76 88L76 94ZM84 91L84 86L78 86L78 91L84 91ZM81 89L106 89L106 83L81 83L81 89ZM103 86L103 91L109 91L109 86L103 86ZM106 88L86 88L86 94L106 94L106 88ZM83 91L83 96L89 96L89 91L83 91ZM86 93L81 93L81 99L86 99L86 93ZM78 96L78 111L84 111L84 96L78 96ZM81 114L86 114L86 108L81 108L81 114ZM83 111L83 116L89 116L89 111L83 111ZM86 119L96 119L96 113L86 113L86 119ZM99 116L99 106L93 106L93 116L99 116ZM96 103L91 103L91 109L96 109L96 103ZM94 106L94 101L88 101L88 106L94 106ZM91 104L106 104L106 98L91 98L91 104ZM103 101L103 121L109 121L109 101L103 101ZM106 118L81 118L81 124L106 124L106 118ZM111 121L108 121L108 124L111 124L111 121ZM111 86L111 83L108 83L108 86L111 86ZM146 86L149 86L149 83L146 83L146 86ZM146 91L146 94L149 94L149 91L146 91ZM121 91L121 88L118 88L118 91L121 91ZM121 101L118 101L118 104L121 104L121 101ZM141 101L144 101L144 98L141 98L141 101ZM141 106L141 109L144 109L144 106L141 106ZM121 106L121 103L118 103L118 106L121 106ZM121 116L118 116L118 119L121 119L121 116ZM146 116L149 116L149 113L146 113L146 116ZM146 121L146 124L149 124L149 121L146 121ZM114 121L114 86L108 86L108 121L114 121ZM111 89L146 89L146 83L111 83L111 89ZM143 86L143 91L149 91L149 86L143 86ZM146 88L121 88L121 94L146 94L146 88ZM118 91L118 101L124 101L124 91L118 91ZM121 104L141 104L141 98L121 98L121 104ZM138 101L138 106L144 106L144 101L138 101ZM141 103L121 103L121 109L141 109L141 103ZM118 106L118 116L124 116L124 106L118 106ZM121 119L146 119L146 113L121 113L121 119ZM143 116L143 121L149 121L149 116L143 116ZM146 118L111 118L111 124L146 124L146 118ZM161 121L158 121L158 124L161 124L161 121ZM161 116L164 116L164 113L161 113L161 116ZM156 116L153 116L153 119L156 119L156 116ZM156 111L159 111L159 108L156 108L156 111ZM151 111L148 111L148 114L151 114L151 111ZM151 96L151 93L148 93L148 96L151 96ZM156 96L156 99L159 99L159 96L156 96ZM156 91L156 88L153 88L153 91L156 91ZM161 91L161 94L164 94L164 91L161 91ZM161 86L161 83L158 83L158 86L161 86ZM176 86L179 86L179 83L176 83L176 86ZM176 91L173 91L173 94L176 94L176 91ZM181 91L184 91L184 88L181 88L181 91ZM181 96L178 96L178 99L181 99L181 96ZM186 96L189 96L189 93L186 93L186 96ZM186 111L186 114L189 114L189 111L186 111ZM181 111L181 108L178 108L178 111L181 111ZM181 116L181 119L184 119L184 116L181 116ZM176 116L176 113L173 113L173 116L176 116ZM176 121L176 124L179 124L179 121L176 121ZM166 116L163 116L163 119L166 119L166 116ZM176 116L176 119L179 119L179 116L176 116ZM176 96L179 96L179 93L176 93L176 96ZM171 96L168 96L168 99L171 99L171 96ZM171 91L174 91L174 88L171 88L171 91ZM161 91L161 88L158 88L158 91L161 91ZM161 111L158 111L158 114L161 114L161 111ZM166 111L169 111L169 108L166 108L166 111ZM164 121L164 116L158 116L158 121L164 121ZM161 113L156 113L156 119L161 119L161 113ZM159 116L159 111L153 111L153 116L159 116ZM156 108L151 108L151 114L156 114L156 108ZM154 111L154 96L148 96L148 111L154 111ZM151 99L156 99L156 93L151 93L151 99ZM159 96L159 91L153 91L153 96L159 96ZM156 94L161 94L161 88L156 88L156 94ZM164 91L164 86L158 86L158 91L164 91ZM161 89L176 89L176 83L161 83L161 89ZM173 86L173 91L179 91L179 86L173 86ZM176 94L181 94L181 88L176 88L176 94ZM178 91L178 96L184 96L184 91L178 91ZM181 99L186 99L186 93L181 93L181 99ZM183 96L183 111L189 111L189 96L183 96ZM186 108L181 108L181 114L186 114L186 108ZM178 111L178 116L184 116L184 111L178 111ZM181 113L176 113L176 119L181 119L181 113ZM173 116L173 121L179 121L179 116L173 116ZM176 118L161 118L161 124L176 124L176 118ZM166 119L176 119L176 113L166 113L166 119ZM179 116L179 96L173 96L173 116L179 116ZM176 93L171 93L171 99L176 99L176 93ZM174 96L174 91L168 91L168 96L174 96ZM171 88L161 88L161 94L171 94L171 88ZM158 91L158 111L164 111L164 91L158 91ZM161 114L166 114L166 108L161 108L161 114ZM163 111L163 116L169 116L169 111L163 111Z" fill="black" mask="url(#path-9-outside-2_2688_10)"/>
</g>
<defs>
<filter id="filter0_d_2688_10" x="0.126953" y="14.7051" width="247.504" height="222.818" filterUnits="userSpaceOnUse" color-interpolation-filters="sRGB">
<feFlood flood-opacity="0" result="BackgroundImageFix"/>
<feColorMatrix in="SourceAlpha" type="matrix" values="0 0 0 0 0 0 0 0 0 0 0 0 0 0 0 0 0 0 127 0" result="hardAlpha"/>
<feOffset dy="4"/>
<feGaussianBlur stdDeviation="2"/>
<feComposite in2="hardAlpha" operator="out"/>
<feColorMatrix type="matrix" values="0 0 0 0 0 0 0 0 0 0 0 0 0 0 0 0 0 0 0.25 0"/>
<feBlend mode="normal" in2="BackgroundImageFix" result="effect1_dropShadow_2688_10"/>
<feBlend mode="normal" in="SourceGraphic" in2="effect1_dropShadow_2688_10" result="shape"/>
</filter>
</defs>
</svg>
