<svg width="262" height="253" viewBox="0 0 262 253" fill="none" xmlns="http://www.w3.org/2000/svg">
<g filter="url(#filter0_d_2688_10)">
<path d="M35.2718 152.946L35.8047 145.89L48.8482 153.971L63.4823 161.081L81.2972 166.248L78.3461 205.331L83.3882 239.013L40.183 208.454L35.2718 152.946Z" fill="#CCCCCC" stroke="#1C1B15" stroke-width="5"/>
<path d="M120.168 160.448L83.3089 166.4L81.6694 188.112L79.9069 211.454L87.832 240.441L114.84 231.015L135.959 232.609L171.66 235.305L199.099 233.556L231.474 226.72L255 208.498L255 164.998L251.501 131.499L226.806 141.205C216.1 144.582 194.077 151.399 191.63 151.651C189.184 151.903 164.416 154.873 152.338 156.327L120.168 160.448Z" fill="#2D2D2D" stroke="#1C1B15" stroke-width="5"/>
<path d="M71.1448 133.274L39.5295 143.443L49.4741 152.382L64.8678 162.825L82.8057 166.363L131.938 158.609L177.644 156.055L201.891 149.697L227.812 141.282L246.394 129.583L225.726 122.018L194.499 113.655C190.34 115.161 179.097 118.06 167.398 117.614C152.775 117.055 142.268 122.267 138.163 123.049C134.058 123.831 116.132 126.844 112.992 128.245C110.48 129.365 84.0471 132.064 71.1448 133.274Z" fill="#E5E7EB" stroke="#1C1B15" stroke-width="5"/>
<mask id="path-4-outside-1_2688_10" maskUnits="userSpaceOnUse" x="109.02" y="167.013" width="139.258" height="47.8288" fill="black">
<rect fill="white" x="109.02" y="167.013" width="139.258" height="47.8288"/>
<path d="M112.041 211.074L112.264 170.824L146.763 170.618L146.731 176.368L152.481 176.334L152.418 187.834L146.668 187.868L146.636 193.618L152.386 193.584L152.322 205.083L146.572 205.118L146.54 210.868L112.041 211.074ZM123.668 188.005L140.918 187.902L140.981 176.403L123.732 176.505L123.668 188.005ZM123.573 205.255L140.822 205.152L140.886 193.652L123.636 193.755L123.573 205.255ZM221.289 210.422L221.48 175.922L209.98 175.991L210.012 170.241L244.511 170.035L244.479 175.785L232.98 175.853L232.789 210.353L221.289 210.422Z"/>
<path d="M163.79 210.765L163.822 205.015L175.322 204.946L175.449 181.947L169.699 181.981L169.731 176.231L175.481 176.197L175.513 170.447L187.012 170.378L186.821 204.878L198.321 204.809L198.289 210.559L163.79 210.765Z"/>
</mask>
<path d="M112.041 211.074L112.264 170.824L146.763 170.618L146.731 176.368L152.481 176.334L152.418 187.834L146.668 187.868L146.636 193.618L152.386 193.584L152.322 205.083L146.572 205.118L146.54 210.868L112.041 211.074ZM123.668 188.005L140.918 187.902L140.981 176.403L123.732 176.505L123.668 188.005ZM123.573 205.255L140.822 205.152L140.886 193.652L123.636 193.755L123.573 205.255ZM221.289 210.422L221.48 175.922L209.98 175.991L210.012 170.241L244.511 170.035L244.479 175.785L232.98 175.853L232.789 210.353L221.289 210.422Z" fill="#ECD06F"/>
<path d="M163.79 210.765L163.822 205.015L175.322 204.946L175.449 181.947L169.699 181.981L169.731 176.231L175.481 176.197L175.513 170.447L187.012 170.378L186.821 204.878L198.321 204.809L198.289 210.559L163.79 210.765Z" fill="#E5E7EB"/>
<path d="M112.041 211.074L109.041 211.092L109.024 214.091L112.024 214.074L112.041 211.074ZM112.264 170.824L112.28 167.824L109.28 167.842L109.264 170.842L112.264 170.824ZM146.763 170.618L149.763 170.6L149.78 167.6L146.78 167.618L146.763 170.618ZM146.731 176.368L143.731 176.386L143.715 179.386L146.715 179.368L146.731 176.368ZM152.481 176.334L155.481 176.316L155.498 173.316L152.498 173.334L152.481 176.334ZM152.418 187.834L152.401 190.834L155.401 190.816L155.417 187.816L152.418 187.834ZM146.668 187.868L146.684 184.868L143.684 184.886L143.668 187.886L146.668 187.868ZM146.636 193.618L143.636 193.636L143.619 196.636L146.619 196.618L146.636 193.618ZM152.386 193.584L155.386 193.566L155.402 190.566L152.402 190.584L152.386 193.584ZM152.322 205.083L152.305 208.083L155.305 208.066L155.322 205.066L152.322 205.083ZM146.572 205.118L146.589 202.118L143.589 202.136L143.572 205.136L146.572 205.118ZM146.54 210.868L146.524 213.868L149.524 213.85L149.54 210.85L146.54 210.868ZM123.668 188.005L120.668 188.023L120.651 191.023L123.651 191.005L123.668 188.005ZM140.918 187.902L140.901 190.902L143.901 190.884L143.918 187.884L140.918 187.902ZM140.981 176.403L143.981 176.385L143.998 173.385L140.998 173.403L140.981 176.403ZM123.732 176.505L123.748 173.506L120.748 173.523L120.732 176.523L123.732 176.505ZM123.573 205.255L120.573 205.273L120.556 208.273L123.556 208.255L123.573 205.255ZM140.822 205.152L140.806 208.152L143.806 208.134L143.822 205.134L140.822 205.152ZM140.886 193.652L143.886 193.634L143.902 190.634L140.902 190.652L140.886 193.652ZM123.636 193.755L123.653 190.755L120.653 190.773L120.636 193.773L123.636 193.755ZM115.041 211.056L115.264 170.806L109.264 170.842L109.041 211.092L115.041 211.056ZM112.247 173.824L146.746 173.618L146.78 167.618L112.28 167.824L112.247 173.824ZM143.763 170.636L143.731 176.386L149.731 176.35L149.763 170.6L143.763 170.636ZM146.715 179.368L152.465 179.334L152.498 173.334L146.748 173.368L146.715 179.368ZM149.481 176.352L149.418 187.852L155.417 187.816L155.481 176.316L149.481 176.352ZM152.434 184.834L146.684 184.868L146.651 190.868L152.401 190.834L152.434 184.834ZM143.668 187.886L143.636 193.636L149.636 193.6L149.668 187.85L143.668 187.886ZM146.619 196.618L152.369 196.584L152.402 190.584L146.652 190.618L146.619 196.618ZM149.386 193.602L149.322 205.101L155.322 205.066L155.386 193.566L149.386 193.602ZM152.339 202.084L146.589 202.118L146.556 208.118L152.305 208.083L152.339 202.084ZM143.572 205.136L143.54 210.886L149.54 210.85L149.572 205.1L143.572 205.136ZM146.557 207.868L112.058 208.074L112.024 214.074L146.524 213.868L146.557 207.868ZM123.651 191.005L140.901 190.902L140.934 184.902L123.685 185.005L123.651 191.005ZM143.918 187.884L143.981 176.385L137.981 176.42L137.918 187.92L143.918 187.884ZM140.998 173.403L123.748 173.506L123.715 179.505L140.965 179.403L140.998 173.403ZM120.732 176.523L120.668 188.023L126.668 187.987L126.732 176.488L120.732 176.523ZM123.556 208.255L140.806 208.152L140.839 202.152L123.589 202.255L123.556 208.255ZM143.822 205.134L143.886 193.634L137.886 193.67L137.822 205.17L143.822 205.134ZM140.902 190.652L123.653 190.755L123.62 196.755L140.869 196.652L140.902 190.652ZM120.636 193.773L120.573 205.273L126.573 205.237L126.636 193.737L120.636 193.773ZM163.79 210.765L160.79 210.783L160.773 213.783L163.773 213.765L163.79 210.765ZM163.822 205.015L163.838 202.015L160.839 202.033L160.822 205.033L163.822 205.015ZM175.322 204.946L175.305 207.946L178.305 207.928L178.322 204.928L175.322 204.946ZM175.449 181.947L178.449 181.929L178.465 178.929L175.466 178.947L175.449 181.947ZM169.699 181.981L166.699 181.999L166.682 184.999L169.682 184.981L169.699 181.981ZM169.731 176.231L169.747 173.231L166.747 173.249L166.731 176.249L169.731 176.231ZM175.481 176.197L175.464 179.197L178.464 179.179L178.481 176.179L175.481 176.197ZM175.513 170.447L175.529 167.447L172.529 167.465L172.513 170.465L175.513 170.447ZM187.012 170.378L190.012 170.36L190.029 167.36L187.029 167.378L187.012 170.378ZM186.821 204.878L183.821 204.895L183.805 207.895L186.805 207.878L186.821 204.878ZM198.321 204.809L201.321 204.791L201.338 201.791L198.338 201.809L198.321 204.809ZM198.289 210.559L198.273 213.559L201.273 213.541L201.289 210.541L198.289 210.559ZM166.79 210.747L166.822 204.997L160.822 205.033L160.79 210.783L166.79 210.747ZM163.805 208.015L175.305 207.946L175.338 201.946L163.838 202.015L163.805 208.015ZM178.322 204.928L178.449 181.929L172.449 181.964L172.322 204.964L178.322 204.928ZM175.466 178.947L169.716 178.981L169.682 184.981L175.432 184.947L175.466 178.947ZM172.699 181.963L172.731 176.213L166.731 176.249L166.699 181.999L172.699 181.963ZM169.714 179.231L175.464 179.197L175.497 173.197L169.747 173.231L169.714 179.231ZM178.481 176.179L178.512 170.429L172.513 170.465L172.481 176.215L178.481 176.179ZM175.496 173.447L186.996 173.378L187.029 167.378L175.529 167.447L175.496 173.447ZM184.012 170.396L183.821 204.895L189.821 204.86L190.012 170.36L184.012 170.396ZM186.805 207.878L198.305 207.809L198.338 201.809L186.838 201.878L186.805 207.878ZM195.321 204.827L195.289 210.577L201.289 210.541L201.321 204.791L195.321 204.827ZM198.306 207.559L163.807 207.765L163.773 213.765L198.273 213.559L198.306 207.559ZM221.289 210.422L218.289 210.439L218.272 213.439L221.272 213.422L221.289 210.422ZM221.48 175.922L224.48 175.904L224.496 172.904L221.496 172.922L221.48 175.922ZM209.98 175.991L206.98 176.009L206.964 179.009L209.964 178.991L209.98 175.991ZM210.012 170.241L210.029 167.241L207.029 167.259L207.012 170.259L210.012 170.241ZM244.511 170.035L247.511 170.017L247.528 167.017L244.528 167.035L244.511 170.035ZM244.479 175.785L244.463 178.785L247.463 178.767L247.479 175.767L244.479 175.785ZM232.98 175.853L232.996 172.854L229.996 172.871L229.98 175.871L232.98 175.853ZM232.789 210.353L232.772 213.353L235.772 213.335L235.789 210.335L232.789 210.353ZM224.289 210.404L224.48 175.904L218.48 175.94L218.289 210.439L224.289 210.404ZM221.496 172.922L209.997 172.991L209.964 178.991L221.463 178.922L221.496 172.922ZM212.98 175.973L213.012 170.223L207.012 170.259L206.98 176.009L212.98 175.973ZM209.995 173.241L244.495 173.035L244.528 167.035L210.029 167.241L209.995 173.241ZM241.511 170.053L241.48 175.803L247.479 175.767L247.511 170.017L241.511 170.053ZM244.496 172.785L232.996 172.854L232.963 178.853L244.463 178.785L244.496 172.785ZM229.98 175.871L229.789 210.371L235.789 210.335L235.98 175.836L229.98 175.871ZM232.805 207.353L221.306 207.422L221.272 213.422L232.772 213.353L232.805 207.353Z" fill="black" mask="url(#path-4-outside-1_2688_10)"/>
<path d="M11.2515 104.044L6.99694 138.57L29.912 154.538L52.523 160.61L54.8946 144.167L53.5854 112.792L62.2951 81.3085L47.5165 65.2483L35.5745 55.0142L17.5 49.458L12.5647 52.1787L10.9027 65.6654L11.2515 104.044Z" fill="#CCCCCC" stroke="#1C1B15" stroke-width="5"/>
<path d="M24.0891 42.7973L16.5892 50.088L39.7037 64.4371L49.9107 72.2668L62.0204 85.2599L70.9197 74.8557L184.518 47.2322L198.423 45.6596L208.025 39.9639L160.264 17.4081L24.0891 42.7973Z" fill="#E5E7EB" stroke="#1C1B15" stroke-width="5"/>
<path d="M216.704 118.522L216.996 135.899L184.049 146.553L156.795 149.909L136.467 150.154L111.308 152.459L88.6354 155.581L56.248 160.757L57.8427 147.816L54.4788 115.873L65.752 83.6309L71.151 75.3629L76.7434 73.4247L93.6809 70.257L121.612 64.7656L157.66 56.5961L188.625 46.2239L198.117 44.2406L211.295 42.1798L214.034 49.3549L216.815 54.4271L221.552 79.1829L216.704 118.522Z" fill="#2D2D2D" stroke="#1C1B15" stroke-width="5"/>
<mask id="path-9-outside-2_2688_10" maskUnits="userSpaceOnUse" x="66.9998" y="80.7981" width="139.409" height="48.3206" fill="black">
<rect fill="white" x="66.9998" y="80.7981" width="139.409" height="48.3206"/>
<path d="M81.5323 125.231L81.5831 119.481L75.8334 119.536L75.8842 113.786L70.1345 113.841L70.287 96.5913L76.0367 96.5366L76.0876 90.7869L81.8373 90.7322L81.8882 84.9824L110.637 84.7089L110.586 90.4587L87.5871 90.6775L87.5362 96.4272L81.7865 96.4819L81.634 113.731L87.3837 113.677L87.3329 119.426L98.8323 119.317L98.934 107.817L93.1843 107.872L93.2351 102.122L110.484 101.958L110.281 124.957L81.5323 125.231ZM116.031 124.903L116.387 84.6542L156.635 84.2713L156.584 90.021L127.835 90.2945L127.734 101.794L150.733 101.575L150.682 107.325L127.683 107.544L127.581 119.043L156.33 118.77L156.279 124.52L116.031 124.903Z"/>
<path d="M173.528 124.356L173.579 118.606L167.829 118.661L167.88 112.911L162.13 112.965L162.283 95.7161L168.033 95.6614L168.083 89.9116L173.833 89.8569L173.884 84.1071L191.133 83.943L191.082 89.6928L196.832 89.6381L196.781 95.3879L202.531 95.3332L202.379 112.583L196.629 112.637L196.578 118.387L190.828 118.442L190.777 124.191L173.528 124.356ZM179.329 118.551L190.828 118.442L191.032 95.4426L185.282 95.4973L185.333 89.7475L173.833 89.8569L173.63 112.856L179.38 112.801L179.329 118.551Z"/>
</mask>
<path d="M81.5323 125.231L81.5831 119.481L75.8334 119.536L75.8842 113.786L70.1345 113.841L70.287 96.5913L76.0367 96.5366L76.0876 90.7869L81.8373 90.7322L81.8882 84.9824L110.637 84.7089L110.586 90.4587L87.5871 90.6775L87.5362 96.4272L81.7865 96.4819L81.634 113.731L87.3837 113.677L87.3329 119.426L98.8323 119.317L98.934 107.817L93.1843 107.872L93.2351 102.122L110.484 101.958L110.281 124.957L81.5323 125.231ZM116.031 124.903L116.387 84.6542L156.635 84.2713L156.584 90.021L127.835 90.2945L127.734 101.794L150.733 101.575L150.682 107.325L127.683 107.544L127.581 119.043L156.33 118.77L156.279 124.52L116.031 124.903Z" fill="#ECD06F"/>
<path d="M173.528 124.356L173.579 118.606L167.829 118.661L167.88 112.911L162.13 112.965L162.283 95.7161L168.033 95.6614L168.083 89.9116L173.833 89.8569L173.884 84.1071L191.133 83.943L191.082 89.6928L196.832 89.6381L196.781 95.3879L202.531 95.3332L202.379 112.583L196.629 112.637L196.578 118.387L190.828 118.442L190.777 124.191L173.528 124.356ZM179.329 118.551L190.828 118.442L191.032 95.4426L185.282 95.4973L185.333 89.7475L173.833 89.8569L173.63 112.856L179.38 112.801L179.329 118.551Z" fill="#E5E7EB"/>
<path d="M81.5323 125.231L78.5324 125.259L78.5059 128.259L81.5058 128.231L81.5323 125.231ZM81.5831 119.481L84.583 119.453L84.6095 116.453L81.6096 116.481L81.5831 119.481ZM75.8334 119.536L72.8335 119.564L72.807 122.564L75.8069 122.536L75.8334 119.536ZM75.8842 113.786L78.8841 113.757L78.9106 110.758L75.9107 110.786L75.8842 113.786ZM70.1345 113.841L67.1346 113.869L67.1081 116.869L70.108 116.841L70.1345 113.841ZM70.287 96.5913L70.3135 93.5915L67.3137 93.62L67.2871 96.6199L70.287 96.5913ZM76.0367 96.5366L76.0102 99.5365L79.0101 99.508L79.0366 96.5081L76.0367 96.5366ZM76.0876 90.7869L76.1141 87.787L73.1142 87.8155L73.0877 90.8154L76.0876 90.7869ZM81.8373 90.7322L81.8108 93.732L84.8107 93.7035L84.8372 90.7036L81.8373 90.7322ZM81.8882 84.9824L81.9147 81.9825L78.9148 82.011L78.8883 85.0109L81.8882 84.9824ZM110.637 84.7089L113.637 84.6803L113.663 81.6805L110.663 81.709L110.637 84.7089ZM110.586 90.4587L110.559 93.4585L113.559 93.43L113.586 90.4301L110.586 90.4587ZM87.5871 90.6775L87.6136 87.6776L84.6137 87.7061L84.5872 90.706L87.5871 90.6775ZM87.5362 96.4272L87.5097 99.4271L90.5096 99.3986L90.5361 96.3987L87.5362 96.4272ZM81.7865 96.4819L81.813 93.4821L78.8131 93.5106L78.7866 96.5105L81.7865 96.4819ZM81.634 113.731L78.6341 113.76L78.6076 116.76L81.6074 116.731L81.634 113.731ZM87.3837 113.677L90.3836 113.648L90.4101 110.648L87.4102 110.677L87.3837 113.677ZM87.3329 119.426L84.333 119.455L84.3065 122.455L87.3063 122.426L87.3329 119.426ZM98.8323 119.317L98.8058 122.317L101.806 122.288L101.832 119.288L98.8323 119.317ZM98.934 107.817L101.934 107.789L101.96 104.789L98.9605 104.818L98.934 107.817ZM93.1843 107.872L90.1844 107.901L90.1579 110.901L93.1578 110.872L93.1843 107.872ZM93.2351 102.122L93.2616 99.1224L90.2618 99.151L90.2353 102.151L93.2351 102.122ZM110.484 101.958L113.484 101.93L113.511 98.9298L110.511 98.9583L110.484 101.958ZM110.281 124.957L110.254 127.957L113.254 127.929L113.281 124.929L110.281 124.957ZM84.5322 125.202L84.583 119.453L78.5833 119.51L78.5324 125.259L84.5322 125.202ZM81.6096 116.481L75.8599 116.536L75.8069 122.536L81.5566 122.481L81.6096 116.481ZM78.8332 119.507L78.8841 113.757L72.8844 113.815L72.8335 119.564L78.8332 119.507ZM75.9107 110.786L70.161 110.841L70.108 116.841L75.8577 116.786L75.9107 110.786ZM73.1343 113.812L73.2869 96.5628L67.2871 96.6199L67.1346 113.869L73.1343 113.812ZM70.2605 99.5912L76.0102 99.5365L76.0633 93.5368L70.3135 93.5915L70.2605 99.5912ZM79.0366 96.5081L79.0874 90.7583L73.0877 90.8154L73.0369 96.5652L79.0366 96.5081ZM76.0611 93.7868L81.8108 93.732L81.8638 87.7323L76.1141 87.787L76.0611 93.7868ZM84.8372 90.7036L84.888 84.9539L78.8883 85.0109L78.8375 90.7607L84.8372 90.7036ZM81.8616 87.9823L110.61 87.7088L110.663 81.709L81.9147 81.9825L81.8616 87.9823ZM107.637 84.7374L107.586 90.4872L113.586 90.4301L113.637 84.6803L107.637 84.7374ZM110.613 87.4588L87.6136 87.6776L87.5605 93.6773L110.559 93.4585L110.613 87.4588ZM84.5872 90.706L84.5364 96.4558L90.5361 96.3987L90.5869 90.6489L84.5872 90.706ZM87.5627 93.4274L81.813 93.4821L81.76 99.4818L87.5097 99.4271L87.5627 93.4274ZM78.7866 96.5105L78.6341 113.76L84.6338 113.703L84.7863 96.4534L78.7866 96.5105ZM81.6074 116.731L87.3572 116.676L87.4102 110.677L81.6605 110.731L81.6074 116.731ZM84.3838 113.705L84.333 119.455L90.3327 119.398L90.3836 113.648L84.3838 113.705ZM87.3063 122.426L98.8058 122.317L98.8589 116.317L87.3594 116.426L87.3063 122.426ZM101.832 119.288L101.934 107.789L95.9342 107.846L95.8325 119.345L101.832 119.288ZM98.9605 104.818L93.2108 104.872L93.1578 110.872L98.9075 110.817L98.9605 104.818ZM96.1841 107.844L96.235 102.094L90.2353 102.151L90.1844 107.901L96.1841 107.844ZM93.2086 105.122L110.458 104.958L110.511 98.9583L93.2616 99.1224L93.2086 105.122ZM107.484 101.987L107.281 124.986L113.281 124.929L113.484 101.93L107.484 101.987ZM110.308 121.957L81.5588 122.231L81.5058 128.231L110.254 127.957L110.308 121.957ZM116.031 124.903L113.031 124.931L113.004 127.931L116.004 127.902L116.031 124.903ZM116.387 84.6542L116.413 81.6543L113.413 81.6828L113.387 84.6827L116.387 84.6542ZM156.635 84.2713L159.635 84.2427L159.661 81.2428L156.661 81.2714L156.635 84.2713ZM156.584 90.021L156.557 93.0209L159.557 92.9924L159.584 89.9925L156.584 90.021ZM127.835 90.2945L127.862 87.2947L124.862 87.3232L124.835 90.3231L127.835 90.2945ZM127.734 101.794L124.734 101.823L124.707 104.823L127.707 104.794L127.734 101.794ZM150.733 101.575L153.732 101.547L153.759 98.5469L150.759 98.5754L150.733 101.575ZM150.682 107.325L150.655 110.325L153.655 110.296L153.682 107.297L150.682 107.325ZM127.683 107.544L127.709 104.544L124.709 104.573L124.683 107.572L127.683 107.544ZM127.581 119.043L124.581 119.072L124.555 122.072L127.555 122.043L127.581 119.043ZM156.33 118.77L159.33 118.741L159.356 115.741L156.356 115.77L156.33 118.77ZM156.279 124.52L156.252 127.52L159.252 127.491L159.279 124.491L156.279 124.52ZM119.031 124.874L119.386 84.6256L113.387 84.6827L113.031 124.931L119.031 124.874ZM116.36 87.6541L156.608 87.2711L156.661 81.2714L116.413 81.6543L116.36 87.6541ZM153.635 84.2998L153.584 90.0496L159.584 89.9925L159.635 84.2427L153.635 84.2998ZM156.61 87.0211L127.862 87.2947L127.809 93.2944L156.557 93.0209L156.61 87.0211ZM124.835 90.3231L124.734 101.823L130.733 101.766L130.835 90.266L124.835 90.3231ZM127.707 104.794L150.706 104.575L150.759 98.5754L127.76 98.7942L127.707 104.794ZM147.733 101.604L147.682 107.354L153.682 107.297L153.732 101.547L147.733 101.604ZM150.708 104.325L127.709 104.544L127.656 110.544L150.655 110.325L150.708 104.325ZM124.683 107.572L124.581 119.072L130.581 119.015L130.683 107.515L124.683 107.572ZM127.555 122.043L156.303 121.77L156.356 115.77L127.608 116.044L127.555 122.043ZM153.33 118.798L153.279 124.548L159.279 124.491L159.33 118.741L153.33 118.798ZM156.305 121.52L116.057 121.903L116.004 127.902L156.252 127.52L156.305 121.52ZM173.528 124.356L170.528 124.384L170.502 127.384L173.502 127.355L173.528 124.356ZM173.579 118.606L176.579 118.577L176.605 115.577L173.605 115.606L173.579 118.606ZM167.829 118.661L164.829 118.689L164.803 121.689L167.803 121.66L167.829 118.661ZM167.88 112.911L170.88 112.882L170.906 109.882L167.907 109.911L167.88 112.911ZM162.13 112.965L159.13 112.994L159.104 115.994L162.104 115.965L162.13 112.965ZM162.283 95.7161L162.309 92.7162L159.31 92.7448L159.283 95.7446L162.283 95.7161ZM168.033 95.6614L168.006 98.6613L171.006 98.6327L171.032 95.6329L168.033 95.6614ZM168.083 89.9116L168.11 86.9117L165.11 86.9403L165.084 89.9402L168.083 89.9116ZM173.833 89.8569L173.807 92.8568L176.807 92.8283L176.833 89.8284L173.833 89.8569ZM173.884 84.1071L173.911 81.1073L170.911 81.1358L170.884 84.1357L173.884 84.1071ZM191.133 83.943L194.133 83.9145L194.16 80.9146L191.16 80.9432L191.133 83.943ZM191.082 89.6928L188.083 89.7214L188.056 92.7212L191.056 92.6927L191.082 89.6928ZM196.832 89.6381L199.832 89.6096L199.859 86.6097L196.859 86.6382L196.832 89.6381ZM196.781 95.3879L193.781 95.4164L193.755 98.4163L196.755 98.3878L196.781 95.3879ZM202.531 95.3332L205.531 95.3046L205.557 92.3048L202.558 92.3333L202.531 95.3332ZM202.379 112.583L202.352 115.582L205.352 115.554L205.378 112.554L202.379 112.583ZM196.629 112.637L196.655 109.637L193.655 109.666L193.629 112.666L196.629 112.637ZM196.578 118.387L196.551 121.387L199.551 121.358L199.578 118.358L196.578 118.387ZM190.828 118.442L190.855 115.442L187.855 115.47L187.828 118.47L190.828 118.442ZM190.777 124.191L190.751 127.191L193.751 127.163L193.777 124.163L190.777 124.191ZM179.329 118.551L176.329 118.58L176.302 121.58L179.302 121.551L179.329 118.551ZM190.828 118.442L190.802 121.442L193.802 121.413L193.828 118.413L190.828 118.442ZM191.032 95.4426L194.031 95.414L194.058 92.4142L191.058 92.4427L191.032 95.4426ZM185.282 95.4973L182.282 95.5258L182.255 98.5257L185.255 98.4972L185.282 95.4973ZM185.333 89.7475L188.333 89.719L188.359 86.7191L185.359 86.7476L185.333 89.7475ZM173.833 89.8569L173.86 86.857L170.86 86.8856L170.833 89.8855L173.833 89.8569ZM173.63 112.856L170.63 112.885L170.603 115.884L173.603 115.856L173.63 112.856ZM179.38 112.801L182.379 112.773L182.406 109.773L179.406 109.801L179.38 112.801ZM176.528 124.327L176.579 118.577L170.579 118.634L170.528 124.384L176.528 124.327ZM173.605 115.606L167.856 115.661L167.803 121.66L173.552 121.606L173.605 115.606ZM170.829 118.632L170.88 112.882L164.88 112.939L164.829 118.689L170.829 118.632ZM167.907 109.911L162.157 109.966L162.104 115.965L167.854 115.911L167.907 109.911ZM165.13 112.937L165.283 95.6876L159.283 95.7446L159.13 112.994L165.13 112.937ZM162.256 98.716L168.006 98.6613L168.059 92.6615L162.309 92.7162L162.256 98.716ZM171.032 95.6329L171.083 89.8831L165.084 89.9402L165.033 95.6899L171.032 95.6329ZM168.057 92.9115L173.807 92.8568L173.86 86.857L168.11 86.9117L168.057 92.9115ZM176.833 89.8284L176.884 84.0786L170.884 84.1357L170.833 89.8855L176.833 89.8284ZM173.857 87.107L191.107 86.9429L191.16 80.9432L173.911 81.1073L173.857 87.107ZM188.133 83.9716L188.083 89.7214L194.082 89.6643L194.133 83.9145L188.133 83.9716ZM191.056 92.6927L196.806 92.638L196.859 86.6382L191.109 86.6929L191.056 92.6927ZM193.832 89.6666L193.781 95.4164L199.781 95.3593L199.832 89.6096L193.832 89.6666ZM196.755 98.3878L202.505 98.3331L202.558 92.3333L196.808 92.388L196.755 98.3878ZM199.531 95.3617L199.379 112.611L205.378 112.554L205.531 95.3046L199.531 95.3617ZM202.405 109.583L196.655 109.637L196.602 115.637L202.352 115.582L202.405 109.583ZM193.629 112.666L193.578 118.416L199.578 118.358L199.629 112.609L193.629 112.666ZM196.604 115.387L190.855 115.442L190.802 121.442L196.551 121.387L196.604 115.387ZM187.828 118.47L187.777 124.22L193.777 124.163L193.828 118.413L187.828 118.47ZM190.804 121.192L173.555 121.356L173.502 127.355L190.751 127.191L190.804 121.192ZM179.302 121.551L190.802 121.442L190.855 115.442L179.355 115.551L179.302 121.551ZM193.828 118.413L194.031 95.414L188.032 95.4711L187.828 118.47L193.828 118.413ZM191.058 92.4427L185.308 92.4974L185.255 98.4972L191.005 98.4425L191.058 92.4427ZM188.282 95.4687L188.333 89.719L182.333 89.7761L182.282 95.5258L188.282 95.4687ZM185.359 86.7476L173.86 86.857L173.807 92.8568L185.306 92.7474L185.359 86.7476ZM170.833 89.8855L170.63 112.885L176.63 112.827L176.833 89.8284L170.833 89.8855ZM173.603 115.856L179.353 115.801L179.406 109.801L173.656 109.856L173.603 115.856ZM176.38 112.83L176.329 118.58L182.329 118.523L182.379 112.773L176.38 112.83Z" fill="black" mask="url(#path-9-outside-2_2688_10)"/>
</g>
<defs>
<filter id="filter0_d_2688_10" x="0.332031" y="14.8027" width="261.168" height="237.635" filterUnits="userSpaceOnUse" color-interpolation-filters="sRGB">
<feFlood flood-opacity="0" result="BackgroundImageFix"/>
<feColorMatrix in="SourceAlpha" type="matrix" values="0 0 0 0 0 0 0 0 0 0 0 0 0 0 0 0 0 0 127 0" result="hardAlpha"/>
<feOffset dy="4"/>
<feGaussianBlur stdDeviation="2"/>
<feComposite in2="hardAlpha" operator="out"/>
<feColorMatrix type="matrix" values="0 0 0 0 0 0 0 0 0 0 0 0 0 0 0 0 0 0 0.25 0"/>
<feBlend mode="normal" in2="BackgroundImageFix" result="effect1_dropShadow_2688_10"/>
<feBlend mode="normal" in="SourceGraphic" in2="effect1_dropShadow_2688_10" result="shape"/>
</filter>
</defs>
</svg>
